<?xml version="1.0" encoding="UTF-8"?>
<svg id="RSVL-RoofingLogo_xA0_Image" xmlns="http://www.w3.org/2000/svg" viewBox="0 0 486.96 231.6">
  <defs>
    <style>
      .cls-1 {
        fill: #020202;
      }

      .cls-2 {
        fill: #ca0202;
      }
    </style>
  </defs>
  <path class="cls-2" d="M250.32,231.58c-.35-.32-.76-.14-1.14-.13-10.68.14-21.35-.11-32.01-.63-8.98-.44-17.94-1.15-26.89-2.07-24.67-2.53-49.01-6.83-72.91-13.49-19.79-5.51-39-12.53-57.22-22.09-12.86-6.75-24.97-14.62-35.59-24.61-7.86-7.4-14.57-15.68-19.13-25.55-3.06-6.62-4.88-13.54-5.2-20.85-.54-12.23,3.08-23.26,9.55-33.47,6.48-10.23,15.01-18.54,24.56-25.87,13.54-10.38,28.48-18.29,44.14-24.91,18.43-7.8,37.5-13.56,57-17.97,4.78-1.08,9.59-2.04,14.4-3.03.38-.08.84-.37,1.2.12-2.96,2.12-5.91,4.23-8.87,6.35-3.44,2.47-6.85,5-10.35,7.39-1.11.76-2.02,1.88-3.42,2.19-1.43.14-2.77.66-4.13,1.06-10.36,2.98-20.61,6.28-30.59,10.4-.5.21-1.02.18-1.53.18-2.32.01-4.64.04-6.96.01-.52,0-.86-.01-.71.65.53,2.36-.7,3.35-2.75,4.28-13.56,6.13-26.41,13.46-38,22.88-8.28,6.73-15.6,14.33-21.1,23.55-4.93,8.27-7.83,17.17-7.87,26.87-.04,8.71,2.24,16.86,6.31,24.53,5.3,9.98,12.78,18.12,21.37,25.31,12.08,10.11,25.63,17.81,39.9,24.33,18.65,8.52,38.1,14.67,58.01,19.44,11.83,2.84,23.78,5.1,35.81,6.91,8.09,1.22,16.21,2.19,24.36,2.99,9.75.96,19.51,1.65,29.29,2.05,12.47.51,24.94.52,37.42.18,7.31-.2,14.62-.56,21.92-1.08,7.33-.52,14.65-1.22,21.95-2.07,7.5-.87,14.97-1.92,22.42-3.14,11.9-1.95,23.7-4.39,35.39-7.37,8.97-2.29,17.84-4.93,26.61-7.88.14-.05.3-.07.47-.05-3.41,1.43-6.92,2.62-10.43,3.76-16.3,5.3-32.89,9.42-49.74,12.53-8.91,1.64-17.85,3.07-26.83,4.2-9.39,1.18-18.81,2.09-28.26,2.73-9.02.61-18.04,1.06-27.07,1.17-.25,0-.57-.15-.73.22h-2.64Z"/>
  <path class="cls-1" d="M128.42,32.93c1.41-.31,2.31-1.43,3.42-2.19,3.5-2.39,6.9-4.92,10.35-7.39,2.95-2.12,5.91-4.24,8.87-6.35.12-.06.23-.12.35-.19,0,0,.07,0,.07,0v-.04c7.55-5.36,15.1-10.71,22.62-16.1.64-.46,1.03-.46,1.65-.03,5.17,3.53,10.36,7.03,15.54,10.54.28.2.56.42.85.61,3.87,2.51,7.56,5.3,11.52,7.67,4.68,3.19,9.35,6.4,14.04,9.58,13.18,8.93,26.38,17.83,39.56,26.77.74.5,1.24.62,2.08.08,14.91-9.64,29.85-19.22,44.76-28.85.82-.53,1.35-.55,2.18,0,18.59,12.26,37.2,24.49,55.81,36.72.34.22.68.75,1.1.47.2-.14.12-.73.12-1.12,0-4.44.03-8.88,0-13.32,0-.88.14-1.25,1.15-1.23,4.2.07,8.4.06,12.6,0,.98-.01,1.19.3,1.18,1.22-.04,8.4,0,16.8-.06,25.19,0,1.09.38,1.62,1.25,2.16,22.97,14.22,45.93,28.46,68.88,42.7.39.24.87.39,1.13.85-.47.07-.77-.25-1.1-.43-47.1-26.14-94.21-52.29-141.3-78.46-.75-.42-1.3-.43-2.06,0-27.93,15.78-55.87,31.53-83.82,47.28q-1.16.65-.02,1.43c8.25,5.66,16.51,11.31,24.76,16.98.33.23.84.33.79.99-6.98-3.49-13.92-6.97-20.86-10.44-19.02-9.51-38.03-19.01-57.04-28.54-.81-.4-1.38-.37-2.18.04-25.83,13.29-51.67,26.55-77.51,39.81-.56.29-1.13.54-1.77.67,8.81-5.78,17.63-11.56,26.44-17.35,17.65-11.58,35.31-23.16,52.95-34.76.74-.48,1.22-.53,1.98-.03,13.97,9.18,27.96,18.33,41.93,27.51.57.37.97.4,1.57.09,14.58-7.69,29.17-15.35,43.76-23.02.24-.13.47-.27.92-.52-26.35-13.25-52.55-26.44-78.75-39.62-.61-.25-1.26-.43-1.81-.77-.69-.43-1.27-.43-1.96-.03-1.14.67-2.32,1.28-3.48,1.91-9.91,5.56-19.83,11.1-29.74,16.67-34.71,19.49-69.42,38.99-104.12,58.48-.37.21-.76.38-1.25.38,1.19-.83,2.38-1.67,3.58-2.5,14.76-10.27,29.51-20.53,44.28-30.78.64-.45.83-.95.83-1.7-.04-6.08-.02-12.15-.09-18.23-.01-1.03.31-1.25,1.28-1.23,4.48.06,8.96.08,13.43.03.97-.01,1.09.33,1.07,1.16-.05,2.46-.02,4.92-.02,7.61,2.29-1.62,4.4-3.11,6.5-4.6,6.9-4.91,13.79-9.82,20.69-14.72.42-.3.81-.63,1.11-1.06Z"/>
  <path class="cls-2" d="M203.66,19.47c-3.96-2.37-7.65-5.16-11.52-7.67-.29-.19-.57-.4-.85-.61.84-.73,1.9-.47,2.84-.55,6.33-.55,12.66-1.09,19-1.46,12.1-.7,24.21-.91,36.33-.81,10.8.09,21.58.51,32.35,1.29,26.85,1.95,53.41,5.86,79.53,12.47,22.25,5.63,43.86,13.02,64.33,23.51,13.65,6.99,26.48,15.2,37.68,25.77,7.61,7.19,14.11,15.23,18.66,24.74,1.95,4.08,3.4,8.32,4.39,12.73.05.22,0,.47,0,.94-.7-1.96-1.27-3.73-1.97-5.44-4.01-9.83-10.33-18.05-17.9-25.36-10.12-9.78-21.76-17.41-34.15-23.95-18.6-9.82-38.26-16.86-58.51-22.35-13.83-3.75-27.84-6.66-41.99-8.95-8.67-1.4-17.37-2.58-26.1-3.49-8.66-.91-17.35-1.54-26.04-2.04-12.74-.73-25.49-.84-38.25-.68-7.4.09-14.79.38-22.17.89-4.9.34-9.8.7-14.71,1.04-.32.02-.64-.01-.95-.02Z"/>
  <path class="cls-2" d="M105.53,168.99c-.25.28-.5.18-.72.18-4.92,0-9.84-.02-14.76.02-.73,0-1.06-.24-1.27-.91-.9-2.93-1.22-5.93-1.21-8.98,0-3.35.13-6.71-.42-10.05-.51-3.09-1.75-4.43-4.82-4.93-1.18-.19-2.39-.17-3.58-.31-.92-.11-1.21.15-1.21,1.14.04,7.56,0,15.12.05,22.67,0,1.08-.25,1.4-1.37,1.38-4.32-.07-8.64-.06-12.96-.01-.93.01-1.12-.27-1.12-1.15.03-16.75.04-33.51.01-50.27,0-.97.28-1.19,1.21-1.18,7.12.04,14.24,0,21.36.04,4.73.02,9.35.68,13.46,3.22,7.01,4.32,8.05,12.85,2.38,18.84-1.55,1.63-3.33,2.84-5.51,3.47-.56.16-1.11.37-1.9.63,1.02.47,1.82.87,2.64,1.22,4.53,1.95,6.34,5.63,6.71,10.33.27,3.42.39,6.86,1.14,10.23.36,1.6,1.03,3.07,1.87,4.44ZM77.57,130.44c0,2.72.01,5.43-.01,8.15,0,.63.11.97.84.93,1.39-.08,2.8-.01,4.19-.15,3.58-.36,5.9-2.63,6.48-6.15.28-1.67.27-3.33.01-5-.61-3.9-2.83-6.08-6.76-6.6-1.28-.17-2.55-.07-3.83-.14-.74-.04-.96.2-.95.94.04,2.68.02,5.35.02,8.03Z"/>
  <path class="cls-2" d="M156.39,141.9c-.09,5.1-.54,9.56-2.01,13.89-2.73,8.04-8.48,12.44-16.65,13.84-5.01.86-9.97.55-14.73-1.4-6.61-2.71-10.28-7.96-12-14.61-2.03-7.85-1.9-15.73.63-23.48,2.79-8.54,10.19-13.97,19.17-14.28,4.23-.14,8.4.09,12.34,1.79,6.28,2.71,9.91,7.71,11.88,14.05,1.09,3.5,1.34,7.12,1.37,10.19ZM125.81,142.76c.1,4.27.12,8.35.47,12.41.21,2.38.45,4.77,1.44,7,1.07,2.41,3.01,3.68,5.44,3.57,2.63-.12,4.4-1.43,5.33-3.9,1-2.65,1.25-5.44,1.4-8.22.42-7.94.55-15.89-.21-23.82-.22-2.3-.48-4.6-1.58-6.69-1.1-2.1-2.9-3.02-5.19-3-2.32.02-4.04,1.07-5.07,3.19-.6,1.23-.89,2.55-1.11,3.89-.85,5.23-.73,10.51-.92,15.57Z"/>
  <path class="cls-2" d="M190.3,132.7c.11-1.12.21-2.1.31-3.09.3-3.07-.87-5.52-3.37-7.21-3.96-2.68-8.28-3.08-12.65-1.22-4.51,1.93-5,7.11-1.07,10.07,1.16.87,2.49,1.41,3.83,1.93,4.67,1.82,9.44,3.4,13.79,5.96,8.08,4.76,10.93,14.72,6.37,22.67-2.02,3.52-5.15,5.76-8.95,6.98-6.59,2.11-13.16,1.9-19.54-.8-6.91-2.93-9.11-8.64-8.23-15.48.06-.45.26-.58.67-.67,1.98-.43,3.96-.9,5.94-1.36.56-.13.79-.03.65.63-.26,1.21-.45,2.43-.62,3.65-.56,4.12,1.16,7.67,4.83,9.61,3.84,2.03,7.84,2.2,11.69.13,4.35-2.35,4.74-7.73.91-10.88-1.69-1.39-3.71-2.16-5.72-2.94-3.56-1.39-7.09-2.84-10.41-4.79-8.34-4.9-9.02-16.32-5.52-22.03,2.43-3.97,6.08-6.27,10.52-7.31,5.94-1.39,11.72-.99,17.19,1.95,4.26,2.29,6.39,5.85,6.36,10.7-.01,2.2,0,2.2-2.13,2.59-1.57.29-3.14.58-4.86.9Z"/>
  <path class="cls-2" d="M394.37,142.93c0-8.32.02-16.63-.02-24.95,0-1,.28-1.27,1.27-1.26,10.52.04,21.03.05,31.55.02.99,0,1.34.23,1.26,1.24-.09,1.07-.07,2.16,0,3.24.05.79-.21,1-1,1-5.48-.04-10.96,0-16.44-.05-1.03-.01-1.25.31-1.24,1.28.05,4.44.05,8.88,0,13.32-.01.98.3,1.2,1.22,1.19,4.48-.04,8.96,0,13.44-.04.89,0,1.2.2,1.12,1.12-.09,1.03-.07,2.08,0,3.12.06.81-.24.99-1,.98-4.52-.04-9.04,0-13.56-.04-.92,0-1.23.21-1.22,1.19.04,6.2.04,12.4,0,18.59,0,.94.28,1.1,1.14,1.1,6.52-.03,13.04,0,19.55-.03.97,0,1.36.21,1.28,1.24-.09,1.11-.05,2.24-.01,3.36.02.56-.16.83-.74.77-.24-.02-.48,0-.72,0-11.52-.01-23.03-.04-34.55,0-1.14,0-1.36-.34-1.36-1.4.04-8.32.02-16.63.02-24.95h.02Z"/>
  <path class="cls-2" d="M206.14,142.94c0-8.36.02-16.71-.02-25.07,0-1,.27-1.24,1.25-1.24,10.51.04,21.03.04,31.54.02.95,0,1.39.17,1.29,1.23-.09,1.03-.08,2.08,0,3.12.07.91-.24,1.15-1.14,1.14-5.44-.04-10.87,0-16.31-.05-.96,0-1.28.17-1.26,1.21.07,4.48.05,8.95,0,13.43,0,.87.17,1.15,1.1,1.13,4.48-.05,8.96,0,13.43-.04.92,0,1.3.2,1.21,1.19-.09,1.03-.07,2.08,0,3.12.05.76-.24.93-.95.92-4.56-.03-9.12,0-13.67-.04-.89,0-1.12.19-1.12,1.1.04,6.24.04,12.47,0,18.71,0,.92.25,1.11,1.13,1.1,6.56-.04,13.11,0,19.67-.04.9,0,1.18.22,1.1,1.12-.08,1.03-.09,2.08,0,3.11.08.93-.26,1.1-1.12,1.09-8.08-.03-16.15-.02-24.23-.02-3.48,0-6.96-.05-10.43.03-1.15.03-1.52-.19-1.51-1.45.07-8.27.04-16.55.04-24.83h.02Z"/>
  <path class="cls-2" d="M268.91,156.22c2.63-9.12,5.21-18.09,7.8-27.06,1.11-3.86,2.25-7.71,3.32-11.58.2-.74.52-.94,1.23-.91,1.24.05,2.48.06,3.72,0,.91-.04.96.26.73,1.04-1.88,6.33-3.71,12.66-5.56,19-3.05,10.47-6.11,20.93-9.12,31.4-.25.86-.57,1.11-1.44,1.1-3.84-.05-7.68-.04-11.51,0-.75,0-1.1-.15-1.31-.95-4.43-16.8-8.89-33.6-13.37-50.39-.26-.99-.1-1.24.97-1.22,4.28.07,8.56.08,12.83,0,1.09-.02,1.5.32,1.76,1.34,3.18,12.41,6.4,24.8,9.61,37.2.08.3.2.6.35,1.04Z"/>
  <path class="cls-2" d="M329.43,140.33c0,7.44.02,14.87-.02,22.31,0,.98.23,1.27,1.24,1.26,6.44-.05,12.87,0,19.31-.04.94,0,1.25.23,1.17,1.18-.09,1.07-.07,2.16,0,3.24.05.8-.23.99-1,.98-5.96-.03-11.91-.02-17.87-.03-5.64,0-11.27-.02-16.91.01-.86,0-1.15-.17-1.15-1.1.04-16.75.05-33.5.03-50.25,0-.94.24-1.21,1.2-1.2,4.28.05,8.56.06,12.83,0,.97-.01,1.2.29,1.2,1.22-.03,7.48-.02,14.95-.02,22.43h-.02Z"/>
  <path class="cls-2" d="M354.31,142.93c0-8.31.02-16.63-.03-24.94,0-1.11.36-1.31,1.37-1.29,4.16.06,8.32.06,12.47,0,1.08-.02,1.41.25,1.41,1.38-.05,14.79-.02,29.58-.07,44.37,0,1.13.23,1.47,1.42,1.46,6.4-.06,12.79-.01,19.19-.05.88,0,1.21.18,1.13,1.11-.09,1.03-.11,2.09,0,3.11.11,1.09-.35,1.2-1.28,1.19-9.31-.04-18.63-.03-27.94-.04-2.2,0-4.4-.05-6.6.02-.92.03-1.13-.25-1.12-1.14.03-8.39.02-16.79.02-25.18h.03Z"/>
  <path class="cls-2" d="M289.92,142.91c0-8.32.02-16.63-.03-24.95,0-1.11.33-1.31,1.34-1.29,4.28.06,8.56.05,12.84.01.89,0,1.23.16,1.23,1.16-.04,16.75-.04,33.51-.02,50.26,0,.87-.18,1.14-1.1,1.13-4.4-.06-8.8-.06-13.2,0-.92.01-1.1-.25-1.1-1.13.03-8.4.02-16.79.02-25.19h.01Z"/>
  <path class="cls-1" d="M314.43,79.15c0,5.27-.02,10.55.02,15.82,0,.88-.14,1.23-1.15,1.22-5.35-.06-10.71-.05-16.06-.02-.8,0-1.09-.15-1.09-1.03.04-10.71.04-21.42,0-32.13,0-.88.29-1.04,1.09-1.04,5.35.04,10.71.05,16.06,0,1.02-.01,1.15.36,1.15,1.23-.03,5.31-.02,10.63-.02,15.94h-.01Z"/>
  <path class="cls-1" d="M177.64,92.89c0,3.75-.02,7.51.02,11.26,0,.77-.18,1-.98,1-5.43-.04-10.87-.04-16.3,0-.74,0-1.02-.14-1.02-.96.04-7.55.04-15.1,0-22.65,0-.78.19-1,.99-1,5.43.04,10.87.05,16.3,0,.9,0,1.02.31,1.01,1.09-.04,3.75-.02,7.51-.02,11.26h0Z"/>
  <path class="cls-1" d="M397.95,175.2c2.52,0,5.04-.07,7.55.02,2.62.09,3.71,1.37,3.7,3.99,0,.62-.2.83-.79.9-.87.1-1.75.24-2.59.47-.78.22-1.06,0-.93-.77.16-1-.23-1.26-1.23-1.25-3.88.06-7.76.04-11.63,0-.76,0-1.04.17-1.03.99.05,3.44.04,6.88,0,10.31,0,.71.16.97.92.96,4.04-.04,8.08-.03,12.11,0,.7,0,.9-.22.86-.89-.05-.88-.05-1.76,0-2.64.04-.65-.23-.81-.84-.8-1.88.03-3.76-.02-5.64.02-.64.01-.79-.2-.8-.81-.05-2.5-.07-2.5,2.48-2.5,2.72,0,5.44.03,8.16-.01.72,0,.98.18.96.94-.06,2.2,0,4.4-.06,6.6-.07,2.4-1.03,3.56-3.41,3.61-5.23.12-10.47.11-15.71,0-2.38-.05-3.36-1.19-3.4-3.62-.07-3.96-.07-7.92,0-11.87.05-2.51,1.13-3.57,3.63-3.65,2.56-.08,5.12-.02,7.67-.02h0Z"/>
  <path class="cls-1" d="M148.74,175.12c2.72,0,5.44-.08,8.15.02,2.42.09,3.4,1.1,3.45,3.54.08,4,.07,7.99,0,11.99-.05,2.42-.9,3.26-3.3,3.6-.55.08-1.12.08-1.67.09-4.48,0-8.96.01-13.43,0-4.09-.02-5.01-.92-5.02-5.03-.01-3.56-.02-7.12.09-10.67.08-2.46,1.02-3.43,3.46-3.52,2.75-.11,5.51-.02,8.27-.02,0,0,0,0,0,.01ZM148.69,178.51h0c-2.16,0-4.32.02-6.48-.02-.67-.01-.88.17-.87.85.03,3.52.03,7.04,0,10.56,0,.72.25.85.9.85,4.28-.02,8.56-.03,12.84,0,.74,0,.95-.2.94-.94-.04-3.48-.04-6.96,0-10.44.01-.81-.3-.9-.97-.88-2.12.03-4.24.01-6.36.01Z"/>
  <path class="cls-1" d="M203.99,175.14c2.68,0,5.36-.07,8.03.02,2.47.09,3.47,1.1,3.52,3.6.07,4,.07,7.99,0,11.99-.04,2.31-.85,3.14-3.11,3.5-.63.1-1.27.11-1.91.12-4.44,0-8.88.01-13.31,0-4.17-.01-5.08-.92-5.09-5.08,0-3.52-.03-7.04.09-10.55.09-2.58,1.04-3.51,3.64-3.6,2.71-.09,5.44-.02,8.15-.02,0,0,0,0,0,.01ZM203.97,178.52h0c-2.2,0-4.39.02-6.59-.02-.69-.01-.86.21-.85.87.03,3.51.03,7.03,0,10.54,0,.7.21.86.88.86,4.27-.03,8.54-.03,12.82,0,.81,0,.99-.24.98-1.01-.04-3.43-.05-6.87,0-10.3.01-.83-.27-.98-1.02-.96-2.08.05-4.15.02-6.23.02Z"/>
  <path class="cls-1" d="M99.11,187.32c2.72,2.26,5.44,4.51,8.44,7-2.29,0-4.25.02-6.21-.03-.25,0-.52-.34-.75-.55-1.86-1.76-3.78-3.46-5.55-5.3-1.02-1.06-2.08-1.53-3.57-1.44-2.18.13-2.18.03-2.18,2.21,0,1.44-.03,2.88.01,4.32.02.62-.17.85-.81.82-.96-.05-1.92-.04-2.88,0-.53.02-.68-.19-.68-.69.01-6,.02-11.99,0-17.99,0-.54.21-.67.71-.67,5.36.03,10.71-.04,16.07.08,2.92.06,3.85,1.2,3.87,4.15,0,1.44.04,2.88-.02,4.32-.09,2.15-1.12,3.23-3.25,3.41-1.03.09-2.07.01-3.1.01l-.1.36ZM94.7,183.74h0c1.12,0,2.24,0,3.36,0,3.24,0,3.25,0,3.24-3.26,0-1.78-.26-2.1-2.07-2.12-3.04-.04-6.07,0-9.11-.03-.62,0-.85.18-.82.81.04,1.24.06,2.48,0,3.71-.04.8.3.92.98.9,1.48-.04,2.96-.01,4.44-.01Z"/>
  <path class="cls-1" d="M175.73,45.39c-4.85-.01-8.72-3.92-8.7-8.79.03-4.79,3.91-8.66,8.71-8.68,4.81-.02,8.79,3.94,8.78,8.76,0,4.83-3.94,8.73-8.79,8.72Z"/>
  <path class="cls-1" d="M350.57,188.23c0-4,.02-7.95-.02-11.91,0-.87.12-1.25,1.14-1.23,2.83.07,2.83.01,2.83,2.9,0,5.12-.03,10.24.02,15.35,0,.93-.29,1.05-1.13,1.11-1.39.1-2.39-.39-3.41-1.28-4.6-4-9.26-7.93-13.93-11.91,0,1.08,0,2.14,0,3.2,0,3.04-.01,6.08,0,9.12,0,.58-.09.83-.76.85-3.21.13-3.2.15-3.2-3.07,0-5.04.03-10.08-.02-15.11-.01-.98.3-1.13,1.2-1.17,1.29-.06,2.25.32,3.22,1.17,4.64,4.03,9.35,7.98,14.06,11.98Z"/>
  <path class="cls-1" d="M247.68,184.72c0-2.88.02-5.76-.02-8.64-.01-.75.14-1.03.97-1.03,5.8.04,11.6.04,17.39,0,.81,0,.99.26.99,1.02-.01,2.37.02,2.37-2.4,2.37-3.8,0-7.6.03-11.4-.03-.94-.02-1.16.28-1.1,1.14.07,1.03.05,2.08,0,3.12-.03.69.21.88.88.87,2.08-.04,4.16.02,6.24-.03.75-.02.93.2.93.94,0,2.57.03,2.57-2.52,2.57-1.4,0-2.81.09-4.2-.03-1.17-.1-1.39.36-1.34,1.41.08,1.72,0,3.44.03,5.16.01.62-.16.85-.8.82-.92-.05-1.84-.06-2.76,0-.74.05-.94-.17-.93-.92.05-2.92.02-5.84.02-8.76h0Z"/>
  <path class="cls-1" d="M299.67,184.79c0,2.88-.03,5.76.02,8.63.01.79-.21,1.05-1,.99-1.11-.08-2.56.35-3.25-.2-.73-.58-.22-2.09-.22-3.19-.03-4.96,0-9.91-.03-14.87,0-.82.18-1.15,1.05-1.07.83.08,1.68.06,2.52,0,.74-.05.95.22.94.95-.04,2.92-.02,5.84-.02,8.75h0Z"/>
  <path class="cls-2" d="M170.88,23.43c1.16-.63,2.34-1.24,3.48-1.91.69-.41,1.27-.41,1.96.03.55.34,1.2.52,1.81.77-.33.55-.9.42-1.39.5-1.77.28-3.55.54-5.32.81-.22.03-.48.18-.55-.2Z"/>
  <path class="cls-2" d="M151.49,16.78v.04s-.08,0-.08,0c-.02-.01-.04-.03-.07-.04.05,0,.1,0,.14,0Z"/>
</svg>