<?xml version="1.0" encoding="iso-8859-1"?>
<!-- Generator: Adobe Illustrator 16.0.0, SVG Export Plug-In . SVG Version: 6.00 Build 0)  -->
<!DOCTYPE svg PUBLIC "-//W3C//DTD SVG 1.1//EN" "http://www.w3.org/Graphics/SVG/1.1/DTD/svg11.dtd">
<svg version="1.1" xmlns="http://www.w3.org/2000/svg" xmlns:xlink="http://www.w3.org/1999/xlink" x="0px" y="0px" width="512px"
	 height="512px" viewBox="0 0 512 512" style="enable-background:new 0 0 512 512;" xml:space="preserve">
<g id="_x32_129_x2C__Barrier_x2C__Boundary_x2C__Construction_Barrier_x2C__Road_Sign_x2C__Under_Construction">
	<g>
		<g>
			<path style="fill:#60534A;" d="M76,23c0,8.249,0,411.076,0,420h60c0-9.031,0-411.372,0-420H76z"/>
			<path style="fill:#60534A;" d="M376,23c0,46.43,0,363.372,0,420h60c0-36.93,0-398.87,0-420H376z"/>
			<polygon style="fill:#73665C;" points="146,439 146,479 66,479 66,439 76,439 136,439 			"/>
			<polygon style="fill:#73665C;" points="446,439 446,479 366,479 366,439 376,439 436,439 			"/>
			<polygon style="fill:#FFD24D;" points="456,229 436,229 376,229 296,229 216,229 136,229 76,229 26,229 26,329 46,329 76,329 
				126,329 136,329 206,329 286,329 366,329 376,329 436,329 486,329 486,229 			"/>
			<polygon style="fill:#3C3B3D;" points="366,329 456,229 486,229 486,329 436,329 376,329 			"/>
			<polygon style="fill:#3C3B3D;" points="376,229 286,329 206,329 296,229 			"/>
			<polygon style="fill:#3C3B3D;" points="216,229 126,329 76,329 46,329 136,229 			"/>
			<polygon style="fill:#FFD24D;" points="456,69 436,69 376,69 296,69 216,69 136,69 76,69 26,69 26,169 46,169 76,169 126,169 
				136,169 206,169 286,169 366,169 376,169 436,169 486,169 486,69 			"/>
			<polygon style="fill:#3C3B3D;" points="366,169 456,69 486,69 486,169 436,169 376,169 			"/>
			<polygon style="fill:#3C3B3D;" points="376,69 286,169 206,169 296,69 			"/>
			<polygon style="fill:#3C3B3D;" points="216,69 126,169 76,169 46,169 136,69 			"/>
			<polygon style="fill:#FFD24D;" points="456,229 366,329 286,329 376,229 436,229 			"/>
			<polygon style="fill:#FFD24D;" points="296,229 206,329 136,329 126,329 216,229 			"/>
			<polygon style="fill:#FFD24D;" points="136,229 46,329 26,329 26,229 76,229 			"/>
			<polygon style="fill:#FFD24D;" points="456,69 366,169 286,169 376,69 436,69 			"/>
			<polygon style="fill:#FFD24D;" points="296,69 206,169 136,169 126,169 216,69 			"/>
			<polygon style="fill:#FFD24D;" points="136,69 46,169 26,169 26,69 76,69 			"/>
			<path style="fill:#D7DEED;" d="M486,489H26c-5.523,0-10-4.478-10-10s4.477-10,10-10h460c5.522,0,10,4.478,10,10
				S491.522,489,486,489z"/>
		</g>
	</g>
</g>
<g id="Layer_1">
</g>
</svg>
