<?xml version="1.0" encoding="UTF-8"?>
<!DOCTYPE svg PUBLIC "-//W3C//DTD SVG 1.1//EN" "http://www.w3.org/Graphics/SVG/1.1/DTD/svg11.dtd">
<!-- Creator: CorelDRAW -->
<svg xmlns="http://www.w3.org/2000/svg" xml:space="preserve" width="7.11111in" height="7.11111in" version="1.1" style="shape-rendering:geometricPrecision; text-rendering:geometricPrecision; image-rendering:optimizeQuality; fill-rule:evenodd; clip-rule:evenodd"
viewBox="0 0 7111 7111"
 xmlns:xlink="http://www.w3.org/1999/xlink">
 <defs>
  <style type="text/css">
   <![CDATA[
    .fil0 {fill:#DAE2FE;fill-rule:nonzero}
    .fil12 {fill:url(#id0)}
    .fil23 {fill:url(#id1)}
    .fil13 {fill:url(#id2)}
    .fil20 {fill:url(#id3)}
    .fil19 {fill:url(#id4)}
    .fil16 {fill:url(#id5)}
    .fil18 {fill:url(#id6)}
    .fil14 {fill:url(#id7)}
    .fil21 {fill:url(#id8)}
    .fil15 {fill:url(#id9)}
    .fil22 {fill:url(#id10)}
    .fil17 {fill:url(#id11)}
    .fil6 {fill:url(#id12);fill-rule:nonzero}
    .fil3 {fill:url(#id13);fill-rule:nonzero}
    .fil5 {fill:url(#id14);fill-rule:nonzero}
    .fil2 {fill:url(#id15);fill-rule:nonzero}
    .fil4 {fill:url(#id16);fill-rule:nonzero}
    .fil11 {fill:url(#id17);fill-rule:nonzero}
    .fil1 {fill:url(#id18);fill-rule:nonzero}
    .fil9 {fill:url(#id19);fill-rule:nonzero}
    .fil7 {fill:url(#id20);fill-rule:nonzero}
    .fil8 {fill:url(#id21);fill-rule:nonzero}
    .fil10 {fill:url(#id22);fill-rule:nonzero}
   ]]>
  </style>
  <linearGradient id="id0" gradientUnits="userSpaceOnUse" x1="1599.81" y1="1644.84" x2="1599.81" y2="2496.03">
   <stop offset="0" style="stop-opacity:1; stop-color:red"/>
   <stop offset="1" style="stop-opacity:1; stop-color:#990000"/>
  </linearGradient>
  <linearGradient id="id1" gradientUnits="userSpaceOnUse" xlink:href="#id0" x1="6197.92" y1="2634.93" x2="6197.92" y2="5466.27">
  </linearGradient>
  <linearGradient id="id2" gradientUnits="userSpaceOnUse" xlink:href="#id0" x1="3453.98" y1="1644.84" x2="3453.98" y2="2496.03">
  </linearGradient>
  <linearGradient id="id3" gradientUnits="userSpaceOnUse" xlink:href="#id0" x1="913.193" y1="2634.93" x2="913.193" y2="5466.27">
  </linearGradient>
  <linearGradient id="id4" gradientUnits="userSpaceOnUse" xlink:href="#id0" x1="569.886" y1="3625" x2="569.886" y2="4476.19">
  </linearGradient>
  <linearGradient id="id5" gradientUnits="userSpaceOnUse" xlink:href="#id0" x1="5441.85" y1="3625" x2="5441.85" y2="4476.19">
  </linearGradient>
  <linearGradient id="id6" gradientUnits="userSpaceOnUse" xlink:href="#id0" x1="2011.3" y1="3625" x2="2011.3" y2="4476.19">
  </linearGradient>
  <linearGradient id="id7" gradientUnits="userSpaceOnUse" xlink:href="#id0" x1="2697.92" y1="2634.92" x2="2697.92" y2="3486.11">
  </linearGradient>
  <linearGradient id="id8" gradientUnits="userSpaceOnUse" xlink:href="#id0" x1="2697.92" y1="4615.08" x2="2697.92" y2="5466.27">
  </linearGradient>
  <linearGradient id="id9" gradientUnits="userSpaceOnUse" xlink:href="#id0" x1="4413.19" y1="2634.92" x2="4413.19" y2="3486.11">
  </linearGradient>
  <linearGradient id="id10" gradientUnits="userSpaceOnUse" xlink:href="#id0" x1="4413.19" y1="4615.08" x2="4413.19" y2="5466.27">
  </linearGradient>
  <linearGradient id="id11" gradientUnits="userSpaceOnUse" xlink:href="#id0" x1="3726.58" y1="3625" x2="3726.58" y2="4476.19">
  </linearGradient>
  <linearGradient id="id12" gradientUnits="userSpaceOnUse" x1="5441.85" y1="4615.08" x2="5441.85" y2="3486.11">
   <stop offset="0" style="stop-opacity:1; stop-color:#E6E6E6"/>
   <stop offset="1" style="stop-opacity:1; stop-color:#CCCCCC"/>
  </linearGradient>
  <linearGradient id="id13" gradientUnits="userSpaceOnUse" xlink:href="#id12" x1="6128.47" y1="5605.16" x2="6128.47" y2="4476.19">
  </linearGradient>
  <linearGradient id="id14" gradientUnits="objectBoundingBox" xlink:href="#id12" x1="50%" y1="100%" x2="50%" y2="0%">
  </linearGradient>
  <linearGradient id="id15" gradientUnits="userSpaceOnUse" xlink:href="#id12" x1="4413.19" y1="5605.16" x2="4413.19" y2="4476.19">
  </linearGradient>
  <linearGradient id="id16" gradientUnits="objectBoundingBox" xlink:href="#id12" x1="49.9999%" y1="100%" x2="49.9999%" y2="0%">
  </linearGradient>
  <linearGradient id="id17" gradientUnits="userSpaceOnUse" xlink:href="#id12" x1="1669.26" y1="2634.92" x2="1669.26" y2="1505.95">
  </linearGradient>
  <linearGradient id="id18" gradientUnits="userSpaceOnUse" xlink:href="#id12" x1="2697.92" y1="5605.16" x2="2697.92" y2="4476.19">
  </linearGradient>
  <linearGradient id="id19" gradientUnits="userSpaceOnUse" xlink:href="#id12" x1="6471.78" y1="3625" x2="6471.78" y2="2496.03">
  </linearGradient>
  <linearGradient id="id20" gradientUnits="userSpaceOnUse" xlink:href="#id12" x1="6642.8" y1="4615.08" x2="6642.8" y2="3486.11">
  </linearGradient>
  <linearGradient id="id21" gradientUnits="userSpaceOnUse" xlink:href="#id12" x1="982.638" y1="3625" x2="982.638" y2="2496.03">
  </linearGradient>
  <linearGradient id="id22" gradientUnits="userSpaceOnUse" xlink:href="#id12" x1="3384.53" y1="2634.92" x2="3384.53" y2="1505.95">
  </linearGradient>
 </defs>
 <g id="Layer_x0020_1">
  <metadata id="CorelCorpID_0Corel-Layer"/>
  <path class="fil0" d="M125 4476l1715 0c39,0 70,31 70,70l0 990c0,38 -31,69 -70,69l-1715 0c-38,0 -69,-31 -69,-69l0 -990c0,-39 31,-70 69,-70zm1646 139l-1577 0 0 851 1577 0 0 -851z"/>
  <path class="fil1" d="M3486 4615l-1576 0 0 851 1576 0 0 -851zm-1646 -139l1716 0c38,0 69,31 69,70l0 990c0,38 -31,69 -69,69l-1716 0c-38,0 -69,-31 -69,-69l0 -990c0,-39 31,-70 69,-70z"/>
  <path class="fil2" d="M3556 4476l1715 0c38,0 69,31 69,70l0 990c0,38 -31,69 -69,69l-1715 0c-39,0 -70,-31 -70,-69l0 -990c0,-39 31,-70 70,-70zm1645 139l-1576 0 0 851 1576 0 0 -851z"/>
  <path class="fil3" d="M6917 4615l-1577 0 0 851 1577 0 0 -851zm-1646 -139l1715 0c38,0 70,31 70,70l0 990c0,38 -32,69 -70,69l-1715 0c-39,0 -70,-31 -70,-69l0 -990c0,-39 31,-70 70,-70z"/>
  <path class="fil0" d="M194 4476l890 0 0 -851 -890 0 0 851zm960 139l-1029 0c-38,0 -69,-31 -69,-69l0 -990c0,-39 31,-70 69,-70l1029 0c38,0 69,31 69,70l0 990c0,38 -31,69 -69,69z"/>
  <path class="fil4" d="M1154 3486l1715 0c38,0 69,31 69,70l0 990c0,38 -31,69 -69,69l-1715 0c-39,0 -70,-31 -70,-69l0 -990c0,-39 31,-70 70,-70zm1645 139l-1576 0 0 851 1576 0 0 -851z"/>
  <path class="fil5" d="M4515 3625l-1577 0 0 851 1577 0 0 -851zm-1646 -139l1715 0c39,0 70,31 70,70l0 990c0,38 -31,69 -70,69l-1715 0c-38,0 -70,-31 -70,-69l0 -990c0,-39 32,-70 70,-70z"/>
  <path class="fil6" d="M4584 3486l1715 0c39,0 70,31 70,70l0 990c0,38 -31,69 -70,69l-1715 0c-38,0 -69,-31 -69,-69l0 -990c0,-39 31,-70 69,-70zm1646 139l-1576 0 0 851 1576 0 0 -851z"/>
  <path class="fil7" d="M6369 4476l548 0 0 -851 -548 0 0 851zm617 139l-687 0c-38,0 -69,-31 -69,-69l0 -990c0,-39 31,-70 69,-70l687 0c38,0 70,31 70,70l0 990c0,38 -32,69 -70,69z"/>
  <path class="fil8" d="M125 2496l1715 0c39,0 70,31 70,69l0 991c0,38 -31,69 -70,69l-1715 0c-38,0 -69,-31 -69,-69l0 -991c0,-38 31,-69 69,-69zm1646 139l-1577 0 0 851 1577 0 0 -851z"/>
  <path class="fil4" d="M3486 2635l-1576 0 0 851 1576 0 0 -851zm-1646 -139l1716 0c38,0 69,31 69,69l0 991c0,38 -31,69 -69,69l-1716 0c-38,0 -69,-31 -69,-69l0 -991c0,-38 31,-69 69,-69z"/>
  <path class="fil5" d="M3556 2496l1715 0c38,0 69,31 69,69l0 991c0,38 -31,69 -69,69l-1715 0c-39,0 -70,-31 -70,-69l0 -991c0,-38 31,-69 70,-69zm1645 139l-1576 0 0 851 1576 0 0 -851z"/>
  <path class="fil9" d="M6986 3625l-1029 0c-38,0 -69,-31 -69,-69l0 -991c0,-38 31,-69 69,-69l1029 0c38,0 70,31 70,69l0 991c0,38 -32,69 -70,69zm-959 -139l890 0 0 -851 -890 0 0 851z"/>
  <path class="fil10" d="M2527 1506l1715 0c39,0 70,31 70,69l0 990c0,39 -31,70 -70,70l-1715 0c-38,0 -70,-31 -70,-70l0 -990c0,-38 32,-69 70,-69zm1646 139l-1577 0 0 851 1577 0 0 -851z"/>
  <path class="fil11" d="M2457 1645l-1576 0 0 851 1576 0 0 -851zm-1645 -139l1715 0c38,0 69,31 69,69l0 990c0,39 -31,70 -69,70l-1715 0c-39,0 -70,-31 -70,-70l0 -990c0,-38 31,-69 70,-69z"/>
  <polygon class="fil12" points="2457,2496 2457,1645 742,1645 742,2496 1786,2496 "/>
  <polygon class="fil13" points="4312,2496 4312,1645 2596,1645 2596,2496 3640,2496 "/>
  <polygon class="fil14" points="3486,2635 2527,2635 1910,2635 1910,3486 2869,3486 3486,3486 "/>
  <polygon class="fil15" points="5201,2635 4242,2635 3625,2635 3625,3486 4584,3486 5201,3486 "/>
  <polygon class="fil16" points="6230,4476 6230,3625 5957,3625 5271,3625 4654,3625 4654,4476 5271,4476 "/>
  <polygon class="fil17" points="4515,4476 4515,3625 3556,3625 2938,3625 2938,4476 3556,4476 "/>
  <polygon class="fil18" points="2799,3625 1840,3625 1223,3625 1223,4476 1840,4476 2799,4476 "/>
  <polygon class="fil19" points="1084,4476 1084,3625 56,3625 56,4476 "/>
  <path class="fil20" d="M1771 5466l0 -851 -617 0 -1098 0 0 851 1715 0zm0 -1980l0 -851 -959 0 -756 0 0 851 1098 0 617 0z"/>
  <polygon class="fil21" points="3486,4615 2869,4615 1910,4615 1910,5466 3486,5466 "/>
  <polygon class="fil22" points="4584,4615 3625,4615 3625,5466 5201,5466 5201,4615 "/>
  <path class="fil23" d="M6299 4615l-959 0 0 851 1716 0 0 -851 -757 0zm757 -139l0 -851 -687 0 0 851 687 0zm0 -990l0 -851 -1029 0 0 851 272 0 757 0z"/>
 </g>
</svg>
