<svg xmlns="http://www.w3.org/2000/svg" xmlns:xlink="http://www.w3.org/1999/xlink" viewBox="0 0 64 64"><defs><style>.cls-1{fill:url(#linear-gradient);}.cls-2{fill:url(#linear-gradient-2);}.cls-3{fill:url(#linear-gradient-3);}.cls-4{fill:url(#linear-gradient-4);}.cls-5{fill:url(#linear-gradient-5);}.cls-6{fill:url(#linear-gradient-6);}.cls-7{fill:url(#linear-gradient-7);}.cls-8{fill:url(#linear-gradient-8);}.cls-9{fill:url(#linear-gradient-9);}</style><linearGradient id="linear-gradient" x1="44.78" y1="23.41" x2="53" y2="23.41" gradientUnits="userSpaceOnUse"><stop offset="0" stop-color="#d7d8d2"/><stop offset="0.07" stop-color="#d0d1cb"/><stop offset="0.7" stop-color="#99988d"/><stop offset="1" stop-color="#848275"/></linearGradient><linearGradient id="linear-gradient-2" x1="11" y1="23.41" x2="19.22" y2="23.41" xlink:href="#linear-gradient"/><linearGradient id="linear-gradient-3" x1="54" y1="23.45" x2="61" y2="23.45" xlink:href="#linear-gradient"/><linearGradient id="linear-gradient-4" x1="8.49" y1="49.9" x2="19.25" y2="49.9" xlink:href="#linear-gradient"/><linearGradient id="linear-gradient-5" x1="44.76" y1="49.9" x2="55.46" y2="49.9" xlink:href="#linear-gradient"/><linearGradient id="linear-gradient-6" x1="17.24" y1="27.27" x2="46.76" y2="27.27" gradientUnits="userSpaceOnUse"><stop offset="0" stop-color="#54595d"/><stop offset="0.39" stop-color="#646664"/><stop offset="1" stop-color="#79766d"/></linearGradient><linearGradient id="linear-gradient-7" x1="17.23" y1="13.51" x2="46.77" y2="13.51" xlink:href="#linear-gradient"/><linearGradient id="linear-gradient-8" x1="11" y1="29.77" x2="56" y2="29.77" gradientUnits="userSpaceOnUse"><stop offset="0" stop-color="#ffe500"/><stop offset="1" stop-color="#fcb415"/></linearGradient><linearGradient id="linear-gradient-9" x1="3" y1="26.88" x2="13" y2="26.88" xlink:href="#linear-gradient-8"/></defs><g id="Layer_55" data-name="Layer 55"><path class="cls-1" d="M45.76,24.41H52a1,1,0,0,0,0-2H45.76A1,1,0,0,0,45.76,24.41Z"/><path class="cls-2" d="M18.24,22.41H12a1,1,0,1,0,0,2h6.24A1,1,0,0,0,18.24,22.41Z"/><path class="cls-3" d="M60,15.63a1,1,0,0,0-1,1v5.78H55a1,1,0,0,0,0,2h4v5.88a1,1,0,0,0,2,0V16.63A1,1,0,0,0,60,15.63Z"/><path class="cls-4" d="M17.41,43.85l-2,2.92a5,5,0,1,0,1.65,1.13l2-2.92A1,1,0,0,0,17.41,43.85ZM13.49,54.38c-4.48-.22-3.62-6.85.76-5.89l-1.59,2.33a1,1,0,1,0,1.65,1.12l1.59-2.33A3,3,0,0,1,13.49,54.38Z"/><path class="cls-5" d="M50.51,46.38a4.93,4.93,0,0,0-1.93.39l-2-2.92A1,1,0,0,0,44.93,45l2,2.92a5,5,0,0,0,3.58,8.48C57.12,56.17,57.12,46.59,50.51,46.38Zm0,8a3,3,0,0,1-2.41-4.77l1.58,2.33a1,1,0,0,0,1.39.27,1,1,0,0,0,.27-1.39l-1.59-2.33C54.13,47.53,55,54.17,50.51,54.38Z"/><path class="cls-6" d="M45.76,17.39H18.24a1,1,0,0,0-1,1V31.23a5.92,5.92,0,0,0,5.91,5.92h17.7a5.92,5.92,0,0,0,5.91-5.92V18.39A1,1,0,0,0,45.76,17.39Z"/><path class="cls-7" d="M46.66,18,42.58,9.62h.92a1,1,0,0,0,0-2h-23a1,1,0,0,0,0,2h.92L17.34,18a1,1,0,0,0,.9,1.44H45.76A1,1,0,0,0,46.66,18Z"/><path class="cls-8" d="M55,14.13H52a1,1,0,0,0-1,1v24H12a1,1,0,0,0-1,1v4.28a1,1,0,0,0,1,1H55a1,1,0,0,0,1-1V15.13A1,1,0,0,0,55,14.13Z"/><path class="cls-9" d="M12.41,8.44a1,1,0,0,0-1.07.16l-8,7a1,1,0,0,0-.34.75V44.41a1,1,0,0,0,1,1h8a1,1,0,0,0,1-1V9.35A1,1,0,0,0,12.41,8.44Z"/></g></svg>