<?xml version="1.0" encoding="UTF-8"?>
<!DOCTYPE svg PUBLIC "-//W3C//DTD SVG 1.1//EN" "http://www.w3.org/Graphics/SVG/1.1/DTD/svg11.dtd">
<!-- Creator: CorelDRAW -->
<svg xmlns="http://www.w3.org/2000/svg" xml:space="preserve" width="1.99999in" height="1.99999in" version="1.1" style="shape-rendering:geometricPrecision; text-rendering:geometricPrecision; image-rendering:optimizeQuality; fill-rule:evenodd; clip-rule:evenodd"
viewBox="0 0 2000 2000"
 xmlns:xlink="http://www.w3.org/1999/xlink">
 <defs>
  <style type="text/css">
   <![CDATA[
    .fil6 {fill:url(#id0)}
    .fil1 {fill:url(#id1)}
    .fil10 {fill:url(#id2)}
    .fil4 {fill:url(#id3)}
    .fil5 {fill:url(#id4)}
    .fil0 {fill:url(#id5)}
    .fil2 {fill:url(#id6)}
    .fil7 {fill:url(#id7)}
    .fil9 {fill:url(#id8)}
    .fil3 {fill:url(#id9)}
    .fil8 {fill:url(#id10)}
   ]]>
  </style>
  <linearGradient id="id0" gradientUnits="userSpaceOnUse" x1="1120.12" y1="1644.57" x2="1120.12" y2="209.594">
   <stop offset="0" style="stop-opacity:1; stop-color:#378B4E"/>
   <stop offset="1" style="stop-opacity:1; stop-color:#99CC33"/>
  </linearGradient>
  <linearGradient id="id1" gradientUnits="userSpaceOnUse" xlink:href="#id0" x1="550.382" y1="1644.57" x2="550.382" y2="913.854">
  </linearGradient>
  <linearGradient id="id2" gradientUnits="userSpaceOnUse" x1="999.984" y1="1790.39" x2="999.984" y2="1599.1">
   <stop offset="0" style="stop-opacity:1; stop-color:#8E4D21"/>
   <stop offset="1" style="stop-opacity:1; stop-color:#663300"/>
  </linearGradient>
  <linearGradient id="id3" gradientUnits="userSpaceOnUse" xlink:href="#id0" x1="1675.84" y1="1644.57" x2="1675.84" y2="535.02">
  </linearGradient>
  <linearGradient id="id4" gradientUnits="userSpaceOnUse" xlink:href="#id0" x1="1407.54" y1="1644.57" x2="1407.54" y2="535.02">
  </linearGradient>
  <linearGradient id="id5" gradientUnits="userSpaceOnUse" xlink:href="#id0" x1="692.776" y1="959.339" x2="692.776" y2="577.669">
  </linearGradient>
  <linearGradient id="id6" gradientUnits="userSpaceOnUse" xlink:href="#id0" x1="1043.19" y1="700.15" x2="1043.19" y2="209.606">
  </linearGradient>
  <linearGradient id="id7" gradientUnits="objectBoundingBox" xlink:href="#id0" x1="50.0006%" y1="100%" x2="50.0006%" y2="0%">
  </linearGradient>
  <linearGradient id="id8" gradientUnits="userSpaceOnUse" xlink:href="#id0" x1="1475.55" y1="1644.57" x2="1475.55" y2="1021.13">
  </linearGradient>
  <linearGradient id="id9" gradientUnits="userSpaceOnUse" xlink:href="#id0" x1="1195.05" y1="1644.58" x2="1195.05" y2="654.697">
  </linearGradient>
  <linearGradient id="id10" gradientUnits="userSpaceOnUse" xlink:href="#id0" x1="810.228" y1="1644.57" x2="810.228" y2="209.626">
  </linearGradient>
 </defs>
 <g id="Layer_x0020_1">
  <metadata id="CorelCorpID_0Corel-Layer"/>
  <path class="fil0" d="M657 959c-10,0 -18,-5 -22,-14 -10,-28 -22,-55 -34,-82 -3,-6 -3,-13 0,-19 51,-114 104,-202 139,-256 5,-8 14,-12 23,-10 9,2 16,8 18,17l5 19c1,4 1,9 -1,14 -42,106 -78,212 -107,315 -2,9 -10,16 -20,16 -1,0 -1,0 -1,0z"/>
  <path class="fil1" d="M585 1645l-97 0c-11,0 -21,-9 -22,-20 -28,-221 6,-455 100,-697 3,-9 12,-15 22,-14 10,0 18,7 21,17 13,47 25,95 35,141 1,4 1,7 0,10 -66,301 -45,487 -37,536 1,7 -1,14 -5,19 -4,5 -11,8 -17,8z"/>
  <path class="fil2" d="M1088 700c-1,0 -1,0 -1,0 -11,0 -19,-8 -21,-18 -33,-143 -73,-292 -122,-443 -3,-11 2,-23 13,-27 10,-5 23,-1 29,9 3,5 79,138 156,352 2,5 2,11 0,16 -12,31 -22,63 -33,95 -3,10 -11,16 -21,16z"/>
  <path class="fil3" d="M1262 1645c0,0 0,0 0,0l-93 0c-6,0 -12,-3 -17,-8 -4,-5 -6,-12 -5,-18 9,-71 33,-338 -49,-778 0,-3 0,-6 0,-9 10,-52 21,-105 33,-160 2,-10 11,-17 21,-17 10,-1 20,6 23,16 64,199 103,399 117,592 1,2 0,4 0,6 -19,119 -22,235 -8,347 0,2 1,4 1,6 0,12 -10,23 -23,23z"/>
  <path class="fil4" d="M1627 1645l-97 0c-11,0 -21,-9 -22,-20 -72,-572 301,-1076 304,-1081 7,-9 20,-12 30,-6 10,6 14,18 10,29 -255,610 -214,983 -203,1051 1,7 -1,14 -5,19 -5,5 -11,8 -17,8z"/>
  <path class="fil5" d="M1358 1645l-96 0c-12,0 -21,-9 -23,-20 -72,-572 301,-1076 305,-1081 7,-9 20,-12 30,-6 10,6 14,18 9,29 -255,610 -213,983 -202,1051 1,7 -1,14 -5,19 -5,5 -11,8 -18,8z"/>
  <path class="fil6" d="M1071 1645l-96 0c-12,0 -22,-9 -23,-21 -73,-742 299,-1397 303,-1403 6,-10 18,-14 29,-9 11,4 16,16 13,27 -259,806 -215,1291 -203,1380 1,6 -1,13 -5,18 -5,5 -11,8 -18,8z"/>
  <path class="fil7" d="M755 1645l-96 0c-7,0 -13,-3 -18,-8 -4,-5 -6,-12 -5,-19 11,-68 53,-441 -202,-1051 -5,-11 -1,-23 9,-29 10,-6 23,-3 30,6 4,5 377,509 305,1081 -2,11 -11,20 -23,20z"/>
  <path class="fil7" d="M470 1645l-97 0c-6,0 -12,-3 -17,-8 -4,-5 -6,-12 -5,-19 11,-68 52,-441 -203,-1051 -4,-11 0,-23 10,-29 10,-6 23,-3 30,6 3,5 376,509 304,1081 -1,11 -11,20 -22,20z"/>
  <path class="fil8" d="M955 1645l-96 0c-7,0 -13,-3 -17,-8 -5,-5 -6,-12 -6,-18 12,-89 56,-574 -202,-1380 -4,-11 2,-23 12,-27 11,-5 23,-1 29,9 4,7 377,661 303,1403 -1,12 -11,21 -23,21z"/>
  <path class="fil9" d="M1451 1645l-91 0c-7,0 -13,-3 -17,-9 -5,-5 -6,-12 -5,-19 52,-263 168,-480 233,-585 6,-10 19,-14 29,-9 11,5 16,17 12,28 -20,64 -36,130 -48,194 0,1 0,2 0,3 -42,130 -72,257 -90,377 -2,11 -11,20 -23,20z"/>
  <path class="fil10" d="M1669 1790l-1338 0c-37,0 -67,-29 -67,-66l0 -58c0,-37 30,-67 67,-67l1338 0c37,0 67,30 67,67l0 58c0,37 -30,66 -67,66z"/>
 </g>
</svg>
