<?xml version="1.0" encoding="UTF-8"?>
<!DOCTYPE svg PUBLIC "-//W3C//DTD SVG 1.1//EN" "http://www.w3.org/Graphics/SVG/1.1/DTD/svg11.dtd">
<!-- Creator: CorelDRAW -->
<svg xmlns="http://www.w3.org/2000/svg" xml:space="preserve" width="1.99999in" height="1.99999in" version="1.1" style="shape-rendering:geometricPrecision; text-rendering:geometricPrecision; image-rendering:optimizeQuality; fill-rule:evenodd; clip-rule:evenodd"
viewBox="0 0 2000 2000"
 xmlns:xlink="http://www.w3.org/1999/xlink">
 <defs>
  <style type="text/css">
   <![CDATA[
    .fil0 {fill:none}
    .fil2 {fill:black}
    .fil1 {fill:url(#id0)}
    .fil8 {fill:url(#id1)}
    .fil3 {fill:url(#id2)}
    .fil5 {fill:url(#id3)}
    .fil4 {fill:url(#id4)}
    .fil6 {fill:url(#id5)}
    .fil7 {fill:url(#id6)}
   ]]>
  </style>
  <linearGradient id="id0" gradientUnits="userSpaceOnUse" x1="1469.89" y1="980.315" x2="1469.89" y2="660.575">
   <stop offset="0" style="stop-opacity:1; stop-color:#BABABA"/>
   <stop offset="1" style="stop-opacity:1; stop-color:#A6A6A6"/>
  </linearGradient>
  <linearGradient id="id1" gradientUnits="userSpaceOnUse" xlink:href="#id0" x1="1283.5" y1="795.449" x2="1283.5" y2="475.709">
  </linearGradient>
  <linearGradient id="id2" gradientUnits="userSpaceOnUse" xlink:href="#id0" x1="1025.39" y1="1076.9" x2="1025.39" y2="710.559">
  </linearGradient>
  <linearGradient id="id3" gradientUnits="userSpaceOnUse" x1="1283.5" y1="933.693" x2="1283.5" y2="337.465">
   <stop offset="0" style="stop-opacity:1; stop-color:#E6E6E6"/>
   <stop offset="1" style="stop-opacity:1; stop-color:#CCCCCC"/>
  </linearGradient>
  <linearGradient id="id4" gradientUnits="userSpaceOnUse" xlink:href="#id0" x1="939.224" y1="668.74" x2="939.224" y2="229.37">
  </linearGradient>
  <linearGradient id="id5" gradientUnits="userSpaceOnUse" xlink:href="#id3" x1="1625.82" y1="1203.45" x2="1625.82" y2="748.768">
  </linearGradient>
  <linearGradient id="id6" gradientUnits="userSpaceOnUse" x1="566.602" y1="932.894" x2="566.602" y2="1770.62">
   <stop offset="0" style="stop-opacity:1; stop-color:red"/>
   <stop offset="1" style="stop-opacity:1; stop-color:#990000"/>
  </linearGradient>
 </defs>
 <rect class="fil0" width="2000" height="2000"/>
 <g id="Layer_x0020_1">
  <metadata id="CorelCorpID_0Corel-Layer"/>
  <path class="fil1" d="M1450 980c-7,0 -13,-2 -19,-7l-113 -110c-5,-5 -8,-12 -8,-19 0,-7 3,-14 8,-19l156 -157c5,-5 12,-8 19,-7 7,0 14,3 19,8l110 113c10,10 10,27 0,37l-153 153c-5,6 -12,8 -19,8z"/>
  <polygon class="fil2" points="827,967 827,967 "/>
  <polygon class="fil2" points="935,1076 935,1076 "/>
  <path class="fil3" d="M947 1077c-7,0 -14,-3 -19,-8l-76 -76c-11,-11 -11,-27 0,-38l233 -236c5,-5 11,-8 19,-8 0,0 0,0 0,0 7,0 14,2 19,7l76 77c11,10 11,27 0,37l-233 237c-5,5 -12,8 -19,8 0,0 0,0 0,0z"/>
  <path class="fil4" d="M1000 669c-14,-6 -20,-22 -14,-35 16,-37 15,-68 -2,-95 -62,-94 -310,-117 -400,-118 -12,0 -22,-9 -25,-20 -3,-11 2,-23 12,-29 115,-69 225,-113 328,-132 82,-15 161,-14 232,4 123,31 181,101 183,104 10,11 8,28 -3,37 -36,30 -293,291 -311,284z"/>
  <path class="fil5" d="M1274 934c-7,0 -14,-3 -19,-8l-264 -263c-5,-5 -7,-12 -7,-19 0,-7 3,-14 8,-19l283 -280c10,-10 27,-10 37,0l263 260c5,5 8,12 8,19 0,7 -2,14 -7,19l-284 283c-5,5 -12,8 -18,8z"/>
  <path class="fil6" d="M1558 1203c-16,0 -32,-6 -44,-17l-83 -83c0,-1 -1,-1 -1,-1 -42,-47 -42,-120 0,-166 0,-1 1,-1 1,-1l153 -154c1,0 1,0 1,-1 47,-42 119,-42 166,0 0,1 1,1 1,2l84 86c11,12 17,27 17,42 0,16 -6,31 -17,43l-233 233c-12,11 -28,17 -45,17z"/>
  <path class="fil7" d="M349 1771c-13,0 -27,-5 -37,-16l-150 -150c-20,-20 -20,-54 0,-74 0,0 1,-1 1,-1l646 -582c21,-20 53,-20 74,0l89 90c12,12 23,33 5,68 -1,2 -2,4 -4,6l-586 642c0,1 0,1 -1,1 -10,10 -23,16 -37,16z"/>
  <path class="fil8" d="M1278 795c-3,0 -7,-1 -10,-4l-141 -141c-3,-2 -4,-6 -4,-10 0,-4 1,-7 4,-10l152 -150c5,-6 14,-6 20,0l141 139c3,3 4,6 4,10 0,4 -1,8 -4,11l-152 151c-3,3 -6,4 -10,4z"/>
 </g>
</svg>
