<?xml version="1.0" encoding="UTF-8"?>
<!DOCTYPE svg PUBLIC "-//W3C//DTD SVG 1.1//EN" "http://www.w3.org/Graphics/SVG/1.1/DTD/svg11.dtd">
<!-- Creator: CorelDRAW -->
<svg xmlns="http://www.w3.org/2000/svg" xml:space="preserve" width="1.70666in" height="1.70666in" version="1.1" style="shape-rendering:geometricPrecision; text-rendering:geometricPrecision; image-rendering:optimizeQuality; fill-rule:evenodd; clip-rule:evenodd"
viewBox="0 0 1707 1707"
 xmlns:xlink="http://www.w3.org/1999/xlink">
 <defs>
  <style type="text/css">
   <![CDATA[
    .fil3 {fill:#1AA1FF}
    .fil13 {fill:url(#id0)}
    .fil15 {fill:url(#id1)}
    .fil12 {fill:url(#id2)}
    .fil14 {fill:url(#id3)}
    .fil11 {fill:url(#id4)}
    .fil5 {fill:url(#id5)}
    .fil0 {fill:url(#id6)}
    .fil10 {fill:url(#id7)}
    .fil16 {fill:url(#id8)}
    .fil17 {fill:url(#id9)}
    .fil9 {fill:url(#id10)}
    .fil8 {fill:url(#id11)}
    .fil7 {fill:url(#id12)}
    .fil2 {fill:url(#id13)}
    .fil4 {fill:url(#id14)}
    .fil6 {fill:url(#id15)}
    .fil1 {fill:url(#id16)}
   ]]>
  </style>
  <linearGradient id="id0" gradientUnits="userSpaceOnUse" x1="1066.97" y1="284.378" x2="1203.61" y2="284.378">
   <stop offset="0" style="stop-opacity:1; stop-color:#336699"/>
   <stop offset="1" style="stop-opacity:1; stop-color:#00CCFF"/>
  </linearGradient>
  <linearGradient id="id1" gradientUnits="userSpaceOnUse" xlink:href="#id0" x1="453.642" y1="551.047" x2="590.28" y2="551.047">
  </linearGradient>
  <linearGradient id="id2" gradientUnits="userSpaceOnUse" xlink:href="#id0" x1="1066.88" y1="551.004" x2="1203.69" y2="551.004">
  </linearGradient>
  <linearGradient id="id3" gradientUnits="userSpaceOnUse" xlink:href="#id0" x1="416.795" y1="416.122" x2="566.795" y2="416.122">
  </linearGradient>
  <linearGradient id="id4" gradientUnits="userSpaceOnUse" xlink:href="#id0" x1="1093.46" y1="416.122" x2="1240.13" y2="416.122">
  </linearGradient>
  <linearGradient id="id5" gradientUnits="userSpaceOnUse" x1="1416.79" y1="1066.11" x2="1476.79" y2="1066.11">
   <stop offset="0" style="stop-opacity:1; stop-color:#378B4E"/>
   <stop offset="1" style="stop-opacity:1; stop-color:#99CC33"/>
  </linearGradient>
  <linearGradient id="id6" gradientUnits="userSpaceOnUse" x1="716.795" y1="978.453" x2="944.457" y2="978.453">
   <stop offset="0" style="stop-opacity:1; stop-color:#AFAFAF"/>
   <stop offset="1" style="stop-opacity:1; stop-color:#9C9C9C"/>
  </linearGradient>
  <linearGradient id="id7" gradientUnits="userSpaceOnUse" x1="640.13" y1="439.35" x2="1019.46" y2="439.35">
   <stop offset="0" style="stop-opacity:1; stop-color:#737373"/>
   <stop offset="1" style="stop-opacity:1; stop-color:#666666"/>
  </linearGradient>
  <linearGradient id="id8" gradientUnits="userSpaceOnUse" xlink:href="#id0" x1="453.559" y1="284.335" x2="590.37" y2="284.335">
  </linearGradient>
  <linearGradient id="id9" gradientUnits="userSpaceOnUse" x1="0.669291" y1="1446.11" x2="1706.26" y2="1446.11">
   <stop offset="0" style="stop-opacity:1; stop-color:#8E4D21"/>
   <stop offset="1" style="stop-opacity:1; stop-color:#663300"/>
  </linearGradient>
  <linearGradient id="id10" gradientUnits="userSpaceOnUse" xlink:href="#id9" x1="1273.46" y1="1369.45" x2="1616.79" y2="1369.45">
  </linearGradient>
  <linearGradient id="id11" gradientUnits="userSpaceOnUse" xlink:href="#id9" x1="86.7953" y1="1369.45" x2="430.13" y2="1369.45">
  </linearGradient>
  <linearGradient id="id12" gradientUnits="userSpaceOnUse" xlink:href="#id5" x1="230.13" y1="1066.11" x2="290.13" y2="1066.11">
  </linearGradient>
  <linearGradient id="id13" gradientUnits="userSpaceOnUse" xlink:href="#id5" x1="230.055" y1="942.827" x2="519.854" y2="942.827">
  </linearGradient>
  <linearGradient id="id14" gradientUnits="userSpaceOnUse" xlink:href="#id5" x1="1186.53" y1="1089.58" x2="1476.62" y2="1089.58">
  </linearGradient>
  <linearGradient id="id15" gradientUnits="userSpaceOnUse" xlink:href="#id5" x1="-0.129921" y1="1089.58" x2="289.961" y2="1089.58">
  </linearGradient>
  <linearGradient id="id16" gradientUnits="userSpaceOnUse" xlink:href="#id5" x1="1416.72" y1="942.827" x2="1706.52" y2="942.827">
  </linearGradient>
 </defs>
 <g id="Layer_x0020_1">
  <metadata id="CorelCorpID_0Corel-Layer"/>
  <path class="fil0" d="M914 1477l-167 0c-17,0 -30,-13 -30,-30l0 -938c0,-16 13,-30 30,-30l167 0c17,0 30,14 30,30l0 938c0,17 -13,30 -30,30z"/>
  <path class="fil1" d="M1512 1050c-42,0 -74,-12 -76,-13 -13,-5 -21,-18 -19,-32 1,-4 16,-94 90,-142 48,-30 107,-36 178,-16 15,4 25,21 20,37 -19,70 -54,119 -105,146 -30,15 -61,20 -88,20z"/>
  <path class="fil2" d="M326 1050c-43,0 -74,-12 -77,-13 -13,-5 -21,-18 -19,-32 1,-4 16,-94 90,-142 48,-30 108,-36 178,-16 16,4 25,21 21,37 -19,70 -55,119 -105,146 -30,15 -61,20 -88,20z"/>
  <path class="fil3" d="M919 381l-179 0c-9,0 -16,-8 -16,-19l0 -118c0,-10 7,-19 16,-19l179 0c10,0 17,9 17,19l0 118c0,10 -8,19 -17,19z"/>
  <path class="fil4" d="M1380 1197c-28,0 -60,-5 -91,-22 -50,-26 -84,-75 -102,-145 -4,-16 6,-32 21,-36 69,-20 127,-15 175,15 76,47 92,138 93,142 3,14 -6,28 -19,33 -2,1 -34,13 -77,13z"/>
  <path class="fil5" d="M1447 1323c-17,0 -30,-14 -30,-30l0 -454c0,-16 13,-30 30,-30 16,0 30,14 30,30l0 454c0,16 -14,30 -30,30z"/>
  <path class="fil6" d="M193 1197c-27,0 -59,-5 -90,-22 -50,-26 -85,-75 -102,-145 -4,-16 5,-32 20,-36 69,-20 128,-15 176,15 75,47 92,138 92,142 3,14 -5,28 -19,33 -2,1 -34,13 -77,13z"/>
  <path class="fil7" d="M260 1323c-17,0 -30,-14 -30,-30l0 -454c0,-16 13,-30 30,-30 17,0 30,14 30,30l0 454c0,16 -13,30 -30,30z"/>
  <path class="fil8" d="M400 1476l-283 0c-17,0 -30,-13 -30,-30l0 -77c0,-58 49,-106 110,-106l123 0c61,0 110,48 110,106l0 77c0,17 -13,30 -30,30z"/>
  <path class="fil9" d="M1587 1476l-284 0c-16,0 -30,-13 -30,-30l0 -77c0,-58 50,-106 110,-106l124 0c60,0 110,48 110,106l0 77c0,17 -14,30 -30,30z"/>
  <path class="fil10" d="M989 538l-319 0c-17,0 -30,-11 -30,-25l0 -148c0,-13 13,-24 30,-24l319 0c17,0 30,11 30,24l0 148c0,14 -13,25 -30,25z"/>
  <path class="fil11" d="M1210 446l-87 0c-16,0 -30,-13 -30,-30 0,-17 14,-30 30,-30l87 0c17,0 30,13 30,30 0,17 -13,30 -30,30z"/>
  <path class="fil12" d="M1173 606c-5,0 -11,-2 -16,-5l-77 -50c-14,-9 -17,-28 -8,-42 9,-14 27,-17 41,-8l77 50c14,9 18,27 9,41 -6,9 -16,14 -26,14z"/>
  <path class="fil13" d="M1097 339c-10,0 -20,-4 -25,-13 -9,-14 -5,-33 8,-42l77 -50c14,-9 32,-5 42,9 9,14 5,32 -9,41l-77 50c-5,4 -11,5 -16,5z"/>
  <path class="fil14" d="M537 446l-90 0c-17,0 -30,-13 -30,-30 0,-17 13,-30 30,-30l90 0c16,0 30,13 30,30 0,17 -14,30 -30,30z"/>
  <path class="fil15" d="M483 606c-9,0 -19,-5 -25,-14 -9,-14 -5,-32 9,-41l77 -50c14,-9 32,-5 41,8 9,14 5,33 -8,42l-77 50c-5,3 -11,5 -17,5z"/>
  <path class="fil16" d="M560 339c-6,0 -11,-1 -16,-5l-77 -50c-14,-9 -18,-27 -9,-41 9,-14 28,-18 42,-9l77 50c14,9 17,28 8,42 -6,9 -15,13 -25,13z"/>
  <path class="fil17" d="M1684 1546l-1661 0c-12,0 -22,-10 -22,-22l0 -155c0,-13 10,-23 22,-23l1661 0c12,0 22,10 22,23l0 155c0,12 -10,22 -22,22z"/>
 </g>
</svg>
