<?xml version="1.0" encoding="iso-8859-1"?>
<!-- Generator: Adobe Illustrator 21.1.0, SVG Export Plug-In . SVG Version: 6.00 Build 0)  -->
<svg version="1.1" id="Layer_1" xmlns="http://www.w3.org/2000/svg" xmlns:xlink="http://www.w3.org/1999/xlink" x="0px" y="0px"
	 viewBox="0 0 24 24" enable-background="new 0 0 24 24" xml:space="preserve">
<g>
	<path fill="#68B345" d="M20,15c0-4.9705629-8-15-8-15S4,10.0294371,4,15s3.5817218,9,8,9S20,19.970562,20,15z"/>
	<path fill="#9ACF87" d="M8.2506714,5.2485962C10.1636353,2.3037109,12,0,12,0v8.9979248L8.2506714,5.2485962z"/>
	<path fill="#85C662" d="M12,8.9979248v8.9979858l-6.960022-6.960022c0.8255005-1.9151611,2.0314941-3.9721069,3.2106934-5.7872925
		L12,8.9979248z"/>
	<path fill="#73B564" d="M12,24c-4.4182739,0-8-4.02948-8-9c0-1.1213989,0.4093628-2.5010376,1.039978-3.9641113L12,17.9959106V24z"
		/>
	<path fill="#1DAA4C" d="M15.7493286,5.2485962C13.8363647,2.3037109,12,0,12,0v8.9979248L15.7493286,5.2485962z"/>
	<path fill="#2F9E48" d="M12,8.9979248v8.9979858l6.960022-6.960022c-0.8255005-1.9151611-2.0314941-3.9721069-3.2106934-5.7872925
		L12,8.9979248z"/>
	<path fill="#2D9145" d="M12,24c4.4182739,0,8-4.02948,8-9c0-1.1213989-0.4093628-2.5010376-1.039978-3.9641113L12,17.9959106V24z"
		/>
	<path opacity="0.1" fill="#010101" d="M12,23.75c4.3795776,0,7.9321899-3.9606934,7.9942017-8.8711548
		C19.9951782,14.9186401,20,14.9608154,20,15c0,4.97052-3.5817261,9-8,9s-8-4.02948-8-9
		c0-0.0391846,0.0048218-0.0813599,0.0057983-0.1211548C4.0678101,19.7893066,7.6204224,23.75,12,23.75z"/>
	<path opacity="0.2" fill="#FFFFFF" d="M4.0057983,15.1288452C4.005249,15.0855103,4,15.0435181,4,15c0-4.9705811,8-15,8-15
		s8,10.0294189,8,15c0,0.0435181-0.005249,0.0855103-0.0057983,0.1288452C19.8700562,10.1192627,12,0.25,12,0.25
		S4.1299438,10.1192627,4.0057983,15.1288452z"/>
	<linearGradient id="SVGID_1_" gradientUnits="userSpaceOnUse" x1="5.760479" y1="9.4629889" x2="20.4283485" y2="16.3027287">
		<stop  offset="0" style="stop-color:#FFFFFF;stop-opacity:0.2"/>
		<stop  offset="1" style="stop-color:#FFFFFF;stop-opacity:0"/>
	</linearGradient>
	<path fill="url(#SVGID_1_)" d="M20,15c0-4.9705629-8-15-8-15S4,10.0294371,4,15s3.5817218,9,8,9S20,19.970562,20,15z"/>
</g>
<g>
</g>
<g>
</g>
<g>
</g>
<g>
</g>
<g>
</g>
<g>
</g>
<g>
</g>
<g>
</g>
<g>
</g>
<g>
</g>
<g>
</g>
<g>
</g>
<g>
</g>
<g>
</g>
<g>
</g>
</svg>
