<svg xmlns="http://www.w3.org/2000/svg" xmlns:xlink="http://www.w3.org/1999/xlink" viewBox="0 0 64 64"><defs><style>.cls-1{fill:url(#linear-gradient);}.cls-2{fill:url(#linear-gradient-2);}.cls-3{fill:url(#linear-gradient-3);}</style><linearGradient id="linear-gradient" x1="16.08" y1="26.27" x2="59.38" y2="26.27" gradientUnits="userSpaceOnUse"><stop offset="0" stop-color="#d7d8d2"/><stop offset="0.07" stop-color="#d0d1cb"/><stop offset="0.7" stop-color="#99988d"/><stop offset="1" stop-color="#848275"/></linearGradient><linearGradient id="linear-gradient-2" x1="19.21" y1="36.99" x2="34.81" y2="36.99" gradientUnits="userSpaceOnUse"><stop offset="0" stop-color="#141c2c"/><stop offset="0.84" stop-color="#090d14"/><stop offset="1" stop-color="#070a0f"/></linearGradient><linearGradient id="linear-gradient-3" x1="4.59" y1="48.89" x2="25.62" y2="48.89" gradientUnits="userSpaceOnUse"><stop offset="0" stop-color="#edd06d"/><stop offset="0.35" stop-color="#e0b858"/><stop offset="1" stop-color="#c2822a"/></linearGradient></defs><g id="Layer_25" data-name="Layer 25"><path class="cls-1" d="M58.4,5.6a3.27,3.27,0,0,0-3.57-.73L18.14,19.68a3.32,3.32,0,0,0-1.1,5.4L38.92,47a3.32,3.32,0,0,0,5.4-1.1L59.13,9.17A3.25,3.25,0,0,0,58.4,5.6Z"/><path class="cls-2" d="M34.52,29.48a1,1,0,0,0-1.41,0l-9.82,9.81c-.36-.31-.86-1.06-1.42-1a1,1,0,0,0-.7.29L19.5,40.25a1,1,0,0,0,0,1.41l2.84,2.84a1,1,0,0,0,1.41,0l1.67-1.67a1,1,0,0,0,0-1.41l-.71-.71,9.81-9.82A1,1,0,0,0,34.52,29.48Z"/><path class="cls-3" d="M25.33,44.66l-6-6a1,1,0,0,0-1.41,0L6.49,49.94C1,55.16,8.78,63,14,57.56L25.33,46.07A1,1,0,0,0,25.33,44.66Z"/></g></svg>