<?xml version="1.0" encoding="UTF-8"?>
<!DOCTYPE svg PUBLIC "-//W3C//DTD SVG 1.1//EN" "http://www.w3.org/Graphics/SVG/1.1/DTD/svg11.dtd">
<!-- Creator: CorelDRAW -->
<svg xmlns="http://www.w3.org/2000/svg" xml:space="preserve" width="1.99999in" height="1.99999in" version="1.1" style="shape-rendering:geometricPrecision; text-rendering:geometricPrecision; image-rendering:optimizeQuality; fill-rule:evenodd; clip-rule:evenodd"
viewBox="0 0 2000 2000"
 xmlns:xlink="http://www.w3.org/1999/xlink">
 <defs>
  <style type="text/css">
   <![CDATA[
    .fil0 {fill:#805D45}
    .fil3 {fill:#9E7256}
    .fil2 {fill:#B07F5F}
    .fil1 {fill:#C48D69}
   ]]>
  </style>
 </defs>
 <g id="Layer_x0020_1">
  <metadata id="CorelCorpID_0Corel-Layer"/>
  <g id="_582046600">
   <path class="fil0" d="M1299 906c-4,0 -8,-1 -11,-3l-300 -173c-11,-6 -15,-20 -8,-31 6,-11 20,-15 31,-9l70 23 251 -15 -56 146 34 19c11,7 15,21 9,32 -4,7 -12,11 -20,11l0 0z"/>
   <path class="fil0" d="M695 909c-8,0 -15,-4 -20,-11 -6,-11 -2,-25 9,-31l173 -100 -139 80 -93 -149 289 4 75 -12c11,-6 25,-2 31,9 6,11 3,25 -8,31l-306 176c-3,2 -7,3 -11,3l0 0z"/>
   <path class="fil1" d="M1575 1587l-276 0c-13,0 -23,-10 -23,-23l0 -854c0,-12 10,-23 23,-23l276 0c13,0 23,11 23,23l0 854c0,13 -10,23 -23,23z"/>
   <path class="fil1" d="M695 1587l-276 0c-12,0 -23,-10 -23,-23l0 -854c0,-12 11,-23 23,-23l276 0c13,0 23,11 23,23l0 854c0,13 -10,23 -23,23z"/>
   <path class="fil2" d="M1655 1720l-1311 0c-12,0 -22,-10 -22,-22l0 -134c0,-12 10,-23 22,-23l1311 0c13,0 23,11 23,23l0 134c0,12 -10,22 -23,22z"/>
   <path class="fil3" d="M1737 1854l-1474 0c-13,0 -23,-11 -23,-23l0 -133c0,-13 10,-23 23,-23l1474 0c13,0 23,10 23,23l0 133c0,12 -10,23 -23,23z"/>
   <path class="fil2" d="M1575 733l-1150 0c-70,0 -126,-57 -126,-126l0 -136c0,-13 10,-23 22,-23l1357 0c13,0 23,10 23,23l0 136c0,69 -56,126 -126,126l0 0z"/>
   <path class="fil3" d="M1678 493l-1357 0c-10,0 -20,-7 -22,-18 -2,-10 3,-21 13,-25l681 -301c6,-3 13,-3 18,0l677 301c9,4 15,15 13,25 -3,11 -12,18 -23,18l0 0z"/>
   <path class="fil2" d="M557 1450c-13,0 -23,-10 -23,-23l0 -580c0,-12 10,-23 23,-23 13,0 23,11 23,23l0 580c0,13 -10,23 -23,23z"/>
   <path class="fil2" d="M1437 1450c-13,0 -23,-10 -23,-23l0 -580c0,-12 10,-23 23,-23 13,0 23,11 23,23l0 580c0,13 -10,23 -23,23z"/>
   <path class="fil3" d="M1487 613l-974 0c-13,0 -23,-10 -23,-23 0,-12 10,-22 23,-22l974 0c12,0 22,10 22,22 0,13 -10,23 -22,23z"/>
   <path class="fil0" d="M992 149l-335 148 688 0 -334 -148c-6,-3 -13,-3 -18,0l-1 0z"/>
  </g>
 </g>
</svg>
