<?xml version="1.0" encoding="UTF-8"?>
<!DOCTYPE svg PUBLIC "-//W3C//DTD SVG 1.1//EN" "http://www.w3.org/Graphics/SVG/1.1/DTD/svg11.dtd">
<!-- Creator: CorelDRAW -->
<svg xmlns="http://www.w3.org/2000/svg" xml:space="preserve" width="512px" height="512px" version="1.1" style="shape-rendering:geometricPrecision; text-rendering:geometricPrecision; image-rendering:optimizeQuality; fill-rule:evenodd; clip-rule:evenodd"
viewBox="0 0 512 512"
 xmlns:xlink="http://www.w3.org/1999/xlink">
 <defs>
  <style type="text/css">
   <![CDATA[
    .fil6 {fill:#666666}
    .fil7 {fill:#999999}
    .fil5 {fill:#99A4AC}
    .fil4 {fill:#CD874A}
    .fil2 {fill:#D58E50}
    .fil1 {fill:#DB965C}
    .fil3 {fill:#E89E5E}
    .fil0 {fill:#F3A766}
    .fil9 {fill:#FF9A00}
    .fil8 {fill:#FFBE00}
   ]]>
  </style>
 </defs>
 <g id="Layer_x0020_1">
  <metadata id="CorelCorpID_0Corel-Layer"/>
  <g id="_525411016">
   <path class="fil0" d="M339 323c-4,0 -8,-3 -8,-8l-151 1c0,4 -3,7 -7,7 -4,0 -8,-3 -8,-7l0 -85c0,-5 4,-8 8,-8l166 0c4,0 7,4 7,8l0 84c0,5 -3,8 -7,8z"/>
   <path class="fil1" d="M243 223l96 0c1,0 2,1 3,1l-87 22c-4,0 -8,-1 -11,-3 -3,-3 -4,-7 -3,-11l2 -9z"/>
   <path class="fil0" d="M251 223l60 0 -58 15c-1,0 -2,0 -3,-1 -1,-1 -1,-2 -1,-3l2 -11z"/>
   <path class="fil0" d="M259 409l-163 0c-4,0 -8,-4 -8,-8l0 -85c0,-4 4,-7 8,-7l163 0 0 100z"/>
   <polygon class="fil0" points="425,409 265,409 265,309 425,309 "/>
   <rect class="fil2" x="254" y="309" width="14.9882" height="99.9334"/>
   <path class="fil0" d="M170 494l-163 0c-4,0 -7,-4 -7,-8l0 -85c0,-4 3,-7 7,-7l163 0 0 100z"/>
   <path class="fil0" d="M505 494l-163 0 0 -100 163 0c4,0 7,3 7,7l0 85c0,4 -3,8 -7,8z"/>
   <polygon class="fil3" points="165,309 254,309 259,309 265,309 269,309 346,309 346,303 165,303 "/>
   <polygon class="fil0" points="337,494 177,494 177,394 337,394 "/>
   <polygon class="fil3" points="88,394 166,394 170,394 177,394 181,394 254,394 254,388 88,388 "/>
   <polygon class="fil3" points="269,394 331,394 337,394 342,394 346,394 425,394 425,388 269,388 "/>
   <polygon class="fil4" points="269,394 269,388 265,388 259,388 254,388 254,394 259,394 265,394 "/>
   <rect class="fil2" x="331" y="394" width="14.9882" height="99.9334"/>
   <rect class="fil2" x="166" y="394" width="14.9882" height="99.9334"/>
   <g>
    <path class="fil5" d="M389 94c1,0 2,1 3,1 1,2 1,4 0,5l-37 36c-1,2 -3,2 -5,0 -1,-1 -1,-3 0,-4l37 -37c1,0 2,-1 2,-1z"/>
    <path class="fil6" d="M292 68c1,0 2,0 2,1 53,53 71,71 124,124 1,0 1,2 1,3 -1,1 -2,2 -3,2l-163 40c-1,0 -2,0 -3,-1 -1,-1 -1,-2 -1,-3l40 -164c0,-1 1,-2 2,-2 0,0 1,0 1,0z"/>
    <path class="fil7" d="M336 111c14,14 26,25 39,39l-46 11c-1,0 -2,0 -3,-1 -1,-1 -1,-2 -1,-3l11 -46z"/>
    <path class="fil8" d="M447 18c5,0 11,3 15,7 9,8 9,22 0,31l-57 57c-1,1 -3,1 -4,0l-27 -27c-1,0 -1,-1 -1,-2 0,0 0,-1 1,-2l57 -57c4,-4 10,-7 16,-7 0,0 0,0 0,0z"/>
    <path class="fil7" d="M303 181c0,0 1,0 2,1 1,1 1,3 0,4l-29 29c-1,1 -3,1 -4,0 -2,-1 -2,-3 0,-4l28 -29c1,-1 2,-1 3,-1z"/>
   </g>
   <path class="fil9" d="M447 18c-6,0 -12,3 -16,7l-57 57c-1,1 -1,2 -1,2 0,1 0,2 1,2l3 4 53 -53c4,-5 10,-7 16,-7 6,0 11,2 15,6 4,4 6,8 6,12 3,-8 1,-17 -5,-23 -4,-4 -10,-7 -15,-7z"/>
  </g>
 </g>
</svg>
