<?xml version="1.0" encoding="UTF-8"?>
<!DOCTYPE svg PUBLIC "-//W3C//DTD SVG 1.1//EN" "http://www.w3.org/Graphics/SVG/1.1/DTD/svg11.dtd">
<!-- Creator: CorelDRAW -->
<svg xmlns="http://www.w3.org/2000/svg" xml:space="preserve" width="1.70666in" height="1.70666in" version="1.1" style="shape-rendering:geometricPrecision; text-rendering:geometricPrecision; image-rendering:optimizeQuality; fill-rule:evenodd; clip-rule:evenodd"
viewBox="0 0 1707 1707"
 xmlns:xlink="http://www.w3.org/1999/xlink">
 <defs>
  <style type="text/css">
   <![CDATA[
    .fil1 {fill:black}
    .fil4 {fill:url(#id0)}
    .fil0 {fill:url(#id1)}
    .fil2 {fill:url(#id2)}
    .fil3 {fill:url(#id3)}
   ]]>
  </style>
  <linearGradient id="id0" gradientUnits="userSpaceOnUse" x1="0.625984" y1="1309.95" x2="1031.03" y2="1309.95">
   <stop offset="0" style="stop-opacity:1; stop-color:#AFAFAF"/>
   <stop offset="1" style="stop-opacity:1; stop-color:#9C9C9C"/>
  </linearGradient>
  <linearGradient id="id1" gradientUnits="userSpaceOnUse" x1="0.625984" y1="1190.82" x2="1031.03" y2="1190.82">
   <stop offset="0" style="stop-opacity:1; stop-color:#E6E6E6"/>
   <stop offset="1" style="stop-opacity:1; stop-color:#CCCCCC"/>
  </linearGradient>
  <linearGradient id="id2" gradientUnits="userSpaceOnUse" x1="481.665" y1="757.382" x2="1416.93" y2="757.382">
   <stop offset="0" style="stop-opacity:1; stop-color:#8E4D21"/>
   <stop offset="1" style="stop-opacity:1; stop-color:#663300"/>
  </linearGradient>
  <linearGradient id="id3" gradientUnits="userSpaceOnUse" x1="1242.35" y1="232.476" x2="1706.04" y2="232.476">
   <stop offset="0" style="stop-opacity:1; stop-color:#FF9911"/>
   <stop offset="1" style="stop-opacity:1; stop-color:#FF6600"/>
  </linearGradient>
 </defs>
 <g id="Layer_x0020_1">
  <metadata id="CorelCorpID_0Corel-Layer"/>
  <path class="fil0" d="M339 1706c-91,0 -181,-21 -264,-65 -4,-2 -8,-5 -10,-9 -122,-236 -67,-523 140,-730l220 -220c8,-9 23,-9 32,0l227 228c9,9 9,23 0,32 20,21 61,64 79,83 1,-1 1,-2 2,-2 9,-9 23,-9 32,0l227 227c5,4 7,10 7,16 0,6 -2,12 -7,16l-219 219c-134,135 -301,205 -466,205z"/>
  <path class="fil1" d="M687 939l-118 199 198 -117 591 -591c-7,-5 -14,-11 -21,-18l-43 -43c-6,-6 -12,-13 -17,-20l-590 590z"/>
  <path class="fil2" d="M504 1225c-5,0 -11,-2 -16,-7 -7,-7 -8,-18 -3,-27l164 -277c1,-2 2,-4 3,-5l613 -613c5,-5 13,-7 20,-6 7,1 13,6 17,12 6,13 14,25 25,35l42 43c11,10 22,19 35,25 7,3 11,10 13,17 1,7 -2,14 -7,20l-613 613c-2,1 -3,3 -5,4l-276 163c-4,2 -8,3 -12,3z"/>
  <path class="fil3" d="M1463 464c-47,0 -92,-18 -126,-52l-43 -43c-33,-33 -52,-78 -52,-126 0,-47 19,-92 52,-126l45 -45 1 0 1 -1 63 -64c9,-9 24,-9 33,0l262 263c5,4 7,10 7,16 0,6 -2,12 -7,16l-110 110c-33,34 -78,52 -126,52zm124 -114l-231 -230 -29 29c-25,25 -39,59 -39,94 0,36 14,69 38,94l43 43c25,25 59,39 94,39 36,0 69,-14 94,-39l30 -30zm-199 -262l231 230"/>
  <path class="fil4" d="M412 1617c-91,0 -181,-21 -264,-64 -4,-2 -8,-6 -10,-10 -104,-200 -80,-435 55,-629 -198,207 -248,487 -128,718 2,4 6,7 10,9 83,44 173,65 264,65 165,0 332,-70 466,-205l219 -219c5,-4 7,-10 7,-16 0,-2 0,-4 -1,-6l-152 153c-134,134 -301,204 -466,204z"/>
 </g>
</svg>
