<?xml version="1.0" encoding="UTF-8"?>
<!DOCTYPE svg PUBLIC "-//W3C//DTD SVG 1.1//EN" "http://www.w3.org/Graphics/SVG/1.1/DTD/svg11.dtd">
<!-- Creator: CorelDRAW -->
<svg xmlns="http://www.w3.org/2000/svg" xml:space="preserve" width="1.99999in" height="1.99999in" version="1.1" style="shape-rendering:geometricPrecision; text-rendering:geometricPrecision; image-rendering:optimizeQuality; fill-rule:evenodd; clip-rule:evenodd"
viewBox="0 0 2000 2000"
 xmlns:xlink="http://www.w3.org/1999/xlink">
 <defs>
  <style type="text/css">
   <![CDATA[
    .fil0 {fill:none}
    .fil4 {fill:url(#id0)}
    .fil6 {fill:url(#id1)}
    .fil1 {fill:url(#id2)}
    .fil7 {fill:url(#id3)}
    .fil3 {fill:url(#id4)}
    .fil5 {fill:url(#id5)}
    .fil2 {fill:url(#id6)}
   ]]>
  </style>
  <linearGradient id="id0" gradientUnits="userSpaceOnUse" x1="1647.9" y1="1557.69" x2="1647.9" y2="1384.2">
   <stop offset="0" style="stop-opacity:1; stop-color:#E6E6E6"/>
   <stop offset="1" style="stop-opacity:1; stop-color:#CCCCCC"/>
  </linearGradient>
  <linearGradient id="id1" gradientUnits="userSpaceOnUse" xlink:href="#id0" x1="1184.03" y1="1225.74" x2="1184.03" y2="708.598">
  </linearGradient>
  <linearGradient id="id2" gradientUnits="userSpaceOnUse" x1="1547.81" y1="1172.41" x2="1547.81" y2="1335.84">
   <stop offset="0" style="stop-opacity:1; stop-color:red"/>
   <stop offset="1" style="stop-opacity:1; stop-color:#990000"/>
  </linearGradient>
  <linearGradient id="id3" gradientUnits="userSpaceOnUse" x1="1184.14" y1="761.972" x2="1184.14" y2="611.839">
   <stop offset="0" style="stop-opacity:1; stop-color:#737373"/>
   <stop offset="1" style="stop-opacity:1; stop-color:#666666"/>
  </linearGradient>
  <linearGradient id="id4" gradientUnits="userSpaceOnUse" xlink:href="#id3" x1="1647.9" y1="1649.44" x2="1647.9" y2="1292.44">
  </linearGradient>
  <linearGradient id="id5" gradientUnits="userSpaceOnUse" x1="1178.97" y1="675.205" x2="1178.97" y2="350.551">
   <stop offset="0" style="stop-opacity:1; stop-color:#8E4D21"/>
   <stop offset="1" style="stop-opacity:1; stop-color:#663300"/>
  </linearGradient>
  <linearGradient id="id6" gradientUnits="userSpaceOnUse" xlink:href="#id2" x1="618.051" y1="407.988" x2="618.051" y2="1649.44">
  </linearGradient>
 </defs>
 <rect class="fil0" width="2000" height="2000"/>
 <g id="Layer_x0020_1">
  <metadata id="CorelCorpID_0Corel-Layer"/>
  <path class="fil1" d="M1576 1336c-10,0 -19,-5 -24,-15l-56 -110c-7,-13 -2,-29 11,-36 13,-6 29,-1 36,12l57 110c7,13 2,29 -11,36 -4,2 -9,3 -13,3z"/>
  <path class="fil2" d="M770 1074c1,0 2,0 3,0 28,-7 57,10 64,39l68 282 80 -258c8,-28 38,-44 67,-35 28,8 43,38 35,66l-137 444c-7,22 -28,37 -51,37 -1,0 -1,0 -2,0 -24,0 -44,-17 -50,-40l-104 -433c-2,0 -4,0 -7,-1l-204 -27c-22,-2 -41,-19 -45,-41l-135 -592 -152 0c-29,0 -53,-24 -53,-54 0,-29 24,-53 53,-53l195 0 0 0c13,0 24,4 33,12l1 0 0 0 1 1 0 0 0 0c8,7 15,17 17,28l135 598 170 22c7,1 13,3 18,5z"/>
  <path class="fil3" d="M1646 1649c-97,0 -177,-80 -177,-180 0,-47 19,-92 52,-125 33,-33 78,-52 125,-52 101,0 180,78 180,177 0,100 -80,180 -180,180z"/>
  <path class="fil4" d="M1646 1558c-45,0 -83,-40 -83,-87 0,-47 38,-87 83,-87 48,0 87,39 87,87 0,48 -39,87 -87,87z"/>
  <path class="fil5" d="M698 665c-15,-2 -25,-16 -22,-31 16,-99 106,-203 218,-253 102,-45 205,-40 289,15 111,71 157,52 210,30 40,-16 84,-35 151,-13 83,26 133,105 139,224 0,15 -11,28 -26,28 -135,6 -881,19 -959,0z"/>
  <path class="fil6" d="M1519 1226c-1,0 -1,0 -2,0l-781 -51c-11,-1 -20,-9 -23,-20l-103 -412c-3,-8 -1,-17 4,-24 5,-6 13,-10 21,-10l1098 0c9,0 18,4 22,12 5,8 6,17 2,26l-214 463c-4,10 -13,16 -24,16z"/>
  <path class="fil7" d="M1780 762l-1188 0c-42,0 -77,-35 -77,-77 0,-40 35,-73 77,-73l1188 0c39,0 73,34 73,73 0,41 -34,77 -73,77z"/>
 </g>
</svg>
