<svg xmlns="http://www.w3.org/2000/svg" width="300" height="300"><g><g><g><g><path d="M130.86 236.8c-2.37-7-5.66-13.52-10.53-19.16-6.33-1.97-9.43.57-10.74 5.58-13.9-3.8-7.58-14.2-19.06-22.84h.04c.05-.07.07-.16.08-.25l.05-.5.07-.5.03-.2 4.55.5 10.63 1.16 5.3.55.43-.04.4-.2.26-.34.12-.43.83-9.73.83-9.73.8-9.74.36-4.33-1.38-.1 15.74 1.15-.28 8.74c-.02.97-.36 4.24 0 5 .55 1.08 5.62 2.74 6.93 3.35 1.8.84 8.08 3.82 9.66 4.06.7.12 1.9-.2 2.65-.27l9.25-1.14 3.34 1.16c.02.04.04.1.06.1.17.35 1.88.77 2.97 1.02l.1 2.95c-.26.27-.4.65-.4 1.05.02.44.2.83.54 1.08-.03 0-.05-.02-.06-.03.06 1.06.1 2.12.14 3.18 0 .58 0 .66.03 1.23.1 1.77.04 1.82.6 3.35l.32.82c.3.82.62 1.63.94 2.45l1.34 3.48-1.73 9.3c-.04.23 0 .46.15.63-4.4 1.56-8.03 4.35-11 8.26-9.63 3.7-12.05 11-8.95 21.06-7.23-.5-12.64-3.93-15.4-11.67zm115.17 3.38c-4.5-3.33-8.2-7.26-9.26-13.17.18-2.8-.1-5.46-.74-8-2.87-3.3-5.06-7.47-10.85-7.14l-4.93 3.58c-3.44-2.96-7.3-4.88-12.5-3.75.1-.28.1-.56.05-.84-.22-.75-.42-1.5-.6-2.26l-.15-.58 5.67-.53 6.58-.68.14.2c.43.65.96 1.4 1.25 1.47 1.57.4 6.66-.77 8.53-1.03 3.9-.56 7.82-1.23 11.7-1.92.3-.03.55-.25.63-.52.95 8.88 6.34 16.48 11.4 24.2 3.47 4.75 3.56 10.46 2 16.62-4.28.52-6.55-2.67-8.93-5.67zm-52.65-16.82c-8.3-.4-12.95-6.92-15.14-3.5-3.27.1-5.58-.74-7.7-1.8-1.04.17-2.05.4-3.02.67.42-2.2.94-4.37 1.38-6.57.14-.77.63-2.36.6-3.04-.03-1.1-2.15-6.27-2.87-8.2l-.07-.2-.03-4.68c0-.32 0-.62 0-.94-.38 0-.74.02-1.1.03 5.9-.18 11.83-.4 17.67-1.27-.35.05-.7.1-1.03.15l.64 4.08-.6 1.76c-.72 2.1-1.53 4.38-1.93 6.28-.16.77-1.16 2.43-.34 3.07.6.5 2.12.13 2.87.1 1.43-.04 2.92-.14 4.4-.25l3.8-.32 1.67 5.54c.05.17.15.3.28.4-.22.2-.42.43-.6.65l4.94 7.78c-1.36.25-2.64.32-3.82.26zm-1.52-16.22c-.48-.22-5.87.06-9.15.26l-.9.05 1.97-5.87c.28-.88 1-2.44 1.08-3.27.1-.88-.32-2.58-.45-3.53l-1-7.3 3.58-8.8c-.13.02-.27.03-.4.04 3.55-.33 7.1-.7 10.64-1.05-.02-.52-.04-1.03-.05-1.55.4 12 .87 24.03 2 35.98 0 .12.03.2.07.3-2.07.07-3.83.5-5.24 1.4-.35-1.17-1.53-6.36-2.14-6.64zm8.7 5.24c.06-.1.1-.22.1-.34.24-11.56-.1-23.12-.47-34.67 3.67-.4 7.36-.76 11.06-1.15.3-.03.63-.07.96-.1-.1-.47-.2-.93-.3-1.42 2.16 10.1 4.37 20.23 7.24 30.16-.1-.3-.18-.6-.27-.92-.98.08-2.05.28-2.73.3-1.9.03-4.8.3-6.7.6-1.7.25-4.27-.14-5.52 1.02-.68.64.68 4.83.93 5.75.08.34.27.6.5.8-.34.13-.7.27-1.04.42-1.33-.25-2.58-.38-3.77-.44zm21.44-6.6l-.4-.65c-.34-.5-.7-.98-.97-1.1-.02 0-.04 0-.07 0-1.38-9.46-3.36-18.8-5.32-28.16 2.84-.24 5.78-.48 8.37-.96.45-.06.9-.1 1.4-.16l.27-.44-.4.65-.2.46-.06.5.15.48.3.4 4.37 4.53 4.44 4.46 4.53 4.38 4.66 4.24c.15.17.37.24.6.23-1.16 2.73-1.93 5.83-2.17 9.46 0 .14 0 .28 0 .4-.13-.26-.42-.42-.74-.4-3.3.25-6.57.53-9.83.83l-8.93.87zm-146.28-4.3c.05-.08.07-.18.1-.27l2.87-18.57L81.5 164l.8-5.66-2.6-.35-.74 5.67-2.36 18.66L74.3 201c0 .13 0 .24.04.34-10.88-1.08-21.4-6.52-31.7-14.56l-.04-.4c.65-.02 1.23-.46 1.4-1.12l1.1-4.45 1.14-4.44 1.13-4.45 1.14-4.45.04-.3v-.27l-.08-.28-.1-.28-.4-.65.86-5.4.7.23c1.27.37 2.8.73 3.1.25.78-1.15 1.22-3.73 1.62-6.12l-1.27-.17 59.86 7.83-.15 1.95c-.1.17-.17.4-.18.6-.03.24 0 .47.1.68 0 0 0-.02 0-.03l-2.26 33.34-11.66-.93c-1.94-.12-4.5-.55-6.38-.5-.63.03-2.1-.43-2.7 0-.38.3-.4 2.02-.45 2.53 0 .06 0 .12 0 .17l-8.52-1.46-.95 2.84c-1.32.1-2.65.08-3.96 0zm168.43-8.15c-2.7-3.22-5.48-6.36-8.33-9.45l-7.82-8.3 1.07-1.67c.03-.03.05-.07.07-.1.9-.55 2.04-1.32 2.72-1.8l6.7-.44c.6.78 1.48 1.86 1.9 1.9 1.15.17 4.5-.55 6.36-.9l.3-.06 6.95 5.5c.04.05.08.08.13.1-1.23 1.23-1.87 3.1-2.27 5.23-3.02 2.92-5.8 6.1-7.72 10.08-.02-.02-.04-.04-.05-.07zm-61.1-.97c-5.52-.48-11.07-.4-16.6-.24 0-.3-.03-.62-.03-.9-.06-1.1.28-2.33-.4-3.2-.14-.2-.88-.43-1.68-.65l-1.1-.3-.5-19.33c-.33.02-.67.02-1 .03 6.22-.16 12.46-.38 18.67-.7l4.55-.2c-.4 1.3-.75 2.74-.28 3.13.6.53 3.75.3 4.68.28-.34 0-.97.05-1.68.07-.83 1.9-1.6 3.8-2.47 6.02 0 0 0-.02.03 0-.14.18-.26.42-.3.68.02 0 .02-.02.02-.03v.02c-.02.1-.02.22 0 .32-.02-.1-.02-.22-.02-.32-.16.4-.33.84-.5 1.3-.73 1.83-3.2 7.25-3.38 8.84-.1.78.36 2.68.5 3.55l.24 1.5c.42.07.83.1 1.26.13zm-21.9-5.5c.4.2.8.36 1.14.5-.36-.12-.72-.3-1.14-.5zm-3-1.23c-1.17-.32-9.1.56-11.76.8l-14.3-6.5.24-4.9c.1-1.94.18-3.88.2-5.8 0-1.03.56-3.32-.44-4.07-.98-.73-4.6-.6-5.96-.75-3.5-.34-7.08-.5-10.6-.77l.14-1.8c-.67-.08-1.22-.15-1.5-.18.7.06 3.1.4 4.8.5-.02 0-.02 0-.02-.04.26.37.67.6 1.14.6 13.72.4 27.45.76 41.17.4-.42.03-.83.04-1.24.05l.22 5.7c.12 3.43.08 7.27.4 10.64.16 1.57-.04 4.9.16 7.2-.94-.42-1.92-.85-2.66-1.07zm-117.12-.72l-12.3-1.78c-2.2-10.05-7.22-16.5-15.78-18.53.8-6.9-.46-12.56-3.8-16.96 1-.68 1.88-1.65 2.3-3.48-1.86-.9-2.57-2.28-2.5-4 .57-1.3.65-2.76.42-4.32l-2.2-2.42c1.63-3.13-.3-5.24-1.4-7.6 1.83-4.94 1.17-8.87-.4-12.4 2.33-3.18 3.82-6.62 4.02-10.45 0 0 .02 0 .04 0 6.9 1.65 13.83 3.3 20.76 4.9l-1.3 4.62-1.6 5.77-1.63 5.78-1.58 5.8-.05.23.02.24.05.23.1.22 5.34 9.3 5.38 9.28 5.4 9.26 5.13 8.74-1 3.86-1.12 4.45-1.14 4.45-1.1 4.43c-.05.13-.07.26-.07.38zm214-8.05c-.94-.8-1.87-1.65-2.8-2.47-.76-.67-3.88-3.7-4.55-3.93-.48-.15-4.17.4-6.1.66l-.3.04c-.6-.8-1.42-1.9-1.77-1.98-1.12-.28-3.76.04-5.03.1-.9.04-2.45-.02-3.27.15-.67.15-2.73 1.54-3.9 2.3-.03.02-.07.03-.1.04l-4.27.42c-.07.07-.15.12-.22.18-.13.13.05-.03.23-.18 4.05-3.45 8.1-7.5 12.16-11.58-.06.05-.1.1-.15.14 2.77-.44 5.7-1.1 8.45-1.63 7.28-1.4 14.55-2.82 21.8-4.3.4-.08.68-.48.63-.88-.02-.06-.04-.12-.08-.22 1.22 1.75 2.26 3.7 3.02 6.03-.63 2.16-2.1 3.86-4.4 5.16.3 1.18 1.26 1.42 2.2 1.67-3.73 2.02-6.84 4.88-8.3 10-1.2.02-2.18.27-2.97.7-.04-.15-.14-.3-.26-.42zm-66.8-1.3l1.92-4.74c.68-1.27 1.9-3.23 2.64-4.8-.3 0-.57-.02-.84-.04 1.63.07 3.25.1 4.88.18 2.5.1 2.74-.6 2.8-2.18l.03-.44c0 .15 0 .3-.02.44l21.82-1.93c.95-.08 1.93-.16 2.9-.24-.04-.02-.06-.02-.1-.05.44.18.9.15 1.3-.07 1.5-.1 3.05-.23 4.57-.36.95-.96 1.88-1.9 2.8-2.85-4.58 4.64-9.16 9.3-13.24 14.42.12-.16.24-.32.37-.47l-6.06.6c-.27-.13-.6-.2-.92-.12-.22.06-.4.15-.58.27l-5.62.54c-6.23.62-12.43 1.24-18.64 1.84zm-.82-6.97l-.65-.07.23-.56c.5-1.25.97-2.76.54-3.1-1.36-1.12-5.28-.27-7.2-.46-1.06-.12-2.62.1-3.73.05-4.52-.13-9.37.2-13.95.33l-.05-2.35c-.06-2.12-.1-4.25-.17-6.37-.06-1.98.03-4.45-.18-6.4-.14-1.32.24-3.45-.17-4.6-.52-1.5-2.42-4.25-3.57-6.1l-.33-.56-.8-2.64c-.65 0-1.3-.04-1.92-.06 7.37.2 14.75.4 22.13-.1-.5.03-.98.05-1.47.08-.07.6-.1 1.32-.07 2.23 0 .5-.1 1.62.2 2.06.76 1.1 2.37 2.42 3.35 3.43l4.13 4.1-.1.42c-.37 1.54-.93 3.9-.63 4.42.5.9 2.7 2.14 3.6 2.83l1.8 1.27 1.92 4.63.32 2.92s0-.04.03-.05c-.08.16-.12.34-.12.5-.02.06-.02.1 0 .13-.02 0-.02-.05-.02-.07l-.65 1.3c-.52 1.02-1 2-1.44 2.93-.32-.03-.66-.08-1-.12zm3.52-3.08c.02 0 .04.03.05.04-.02 0-.03 0-.05-.04zm-144.36-2.14l-9.18-15.44-5.52-9.2-5.3-8.76 1.3-5.34 1.4-5.85 1.37-5.83 1.1-4.7c9.2 2.1 18.38 4.18 27.58 6.16.08-.28.14-.55.2-.85-2.3 11.53-4.54 23.08-6.64 34.62l-.66 3.7c-.27.23-.45.56-.5.95-.04.34.03.67.18.94L51 158.6l-.57-.13c-1.27-.3-2.75-.57-3.06-.23-.65.7-.73 3.65-.84 5.12zm144.7-.13c-.1.02-.18.1-.23.13.05-.05.13-.1.24-.13zm5.48-.06l-1.62-.04c-.6-.02-1.18-.04-1.77-.07-.08-.7-.25-1.52-.46-2.35l-.57.25 4.26-1.86 4.25-1.9 4.24-1.9 4.2-1.96.24-.14.24-.25 1.3-1.92 1.23-1.85 1.24-1.85 1.24-1.86.1-.2.07-.22.04-.23v-.23l-.05-.6-1.52-.5 3.25 1.07 3.27 1.07 3.26 1.06 2.35.75c-.04-.05-.07-.1-.1-.15 1.17 1.86 2.38 3.76 3.92 5.35.26.28.53.54.83.8-.3-.26-.57-.52-.83-.8-.06-.05-.1-.1-.15-.16-1.7 1.6-4.03 4.92-5.17 6.46-3.34.27-6.66.54-9.96.8-2.9.25-6.07.35-8.9.76-4.92.7-7.8-.98-8.45 2.37v.27zm-36.8-1.65c-13.25-1-26.5-1.4-39.8-1.8.37 0 .72 0 1.07.03.16-1.72.15-3.9.25-4.6.4-2.9.48-6.4.65-9.35.1-2 .34-4.2.52-6.4-.5-.02-1-.04-1.5-.07 11.92.4 23.87.75 35.8.4-.4.02-.82.04-1.25.06.68 1.42 1.85 3.2 2.88 4.77l.8 1.3.6 15.65c.44.04.88.07 1.33.1-.44-.03-.88-.06-1.34-.1zm-41.06-1.14h-.17l-1.46-.08-1.5-.06-.34-.02-.4-.34-.5-.17-15.28-2.07-15.28-2.05-1.22-.16 1.47-10 2.43-17.18c-.53-.06-1.07-.1-1.6-.16 8.7.84 17.42 1.65 26.17 1.78-.48 0-.96-.02-1.44-.03l.18.3.44.36.56.15 2.66.23 2.66.22 2.66.22 1.36.12-.23 5.45c-.23.23-.36.55-.36.9-.03.35.08.68.28.94l-.26 6.95-.26 7.8-.18 6.5c-.16.12-.3.26-.4.42-.02 0 0-.03 0-.04zm72.03-.07l1.37-1.7c-.58-1.78-1.27-3.36-1.7-3.92-.52-.67-2.7-2.14-4.25-3.2l-.5-.34.05-.22c.37-1.46.9-3.64.8-4.14-.22-.87-5.36-5.84-7.47-7.9l-.26-.26v-2.9l.13-.2c.84-1.4 2.22-3.5 2.57-4.62.12-.4-.26-1.9-.54-2.93l.54-.57c1.4-1.42 3.44-3.54 3.67-4.28.28-.83-.94-2.46-1.44-3.28-.83.08-1.65.15-2.47.2 4.63-.37 9.3-.8 13.82-1.9-.42.1-.85.2-1.27.3.4 1.43 1.68 4.2 2.32 5.66l.9 11.33.93 11.33-1.94 6.83-5.25 6.7zm4.6-2.72c1-1.12 1.95-2.23 2.42-3.02.46-.76.97-2.82 1.28-3.77.34-1.03 1.07-2.8 1.2-3.77.13-.72-.1-1.75-.1-2.5 0-1.5-.18-3.13-.25-4.62-.18-3.83-.43-7.7-.66-11.52-.07-.97-.07-2.23-.14-3.36-.36.14-.7.25-.92.34 1-.4 3.68-1.26 4.42-1.86-.32 0-.64.04-.95.06 2.88-.2 5.76-.45 8.6-.77-.03-.52-.07-1.03-.1-1.56.3 3.93.6 7.87.9 11.8l.93 11.33-4.3 6.85-7.93 4.07c-2.75 1.42-5.48 2.86-8.23 4.32 1.28-.7 2.54-1.36 3.82-2.04zm28.55 1.4c-.15.2-.28.36-.37.47.1-.1.22-.27.37-.48zm4.1-.35l2.77-3.53.46.35c.68.47 1.35.87 1.7.83 1.18-.16 2.96-1.2 4.13-1.7.82-.36 3.6-1.4 4.08-1.98.44-.55 1.4-4.9 2.04-7.7l.06-.3.8.26c.27.06.5.06.65-.03 1.32-.75 2.3-3.82 3.05-5.23l3.05-6.2 5.93-1.47c1.2-.3 2.42-.57 3.6-.9.53-.15 1.72-.3 2.2-.62.62-.4 1.74-1.9 2.2-2.5.6-.76 2.23-2.2 2.2-3.16 0-.66-1.67-2.15-2.82-3.16l-.3-.28.94-3.63c1.35.5 3.28 1.15 4.45 1.3.23 5.1.42 10.2-1.8 15.3-1.27-1.6-2.76-2.04-4.32-2.2 3.33 4.2 3.95 9.3 2 15.17-1.05-3.5-2.4-6.65-4.3-9.07-1.05 3.48-.8 7.1.62 10.85 1.47 1.36 2.88 2.83 4.1 4.5-.15-.13-.4-.23-.64-.2-10.2 1.5-20.4 3.12-30.57 4.78-.36-.1-.76-.04-1.1.16l.03-.03c-1.76.14-3.48.26-5.2.4zm-148.07-3.55l-11.44-1.52-13.85-1.85c.04-.25.1-.5.17-.72 1-3.53 1.64-7.83 2.4-11.5 1.66-8.13 3.24-16.3 4.87-24.44 4.06.87 8.13 1.72 12.2 2.53l.25-1.57c-4.28-1.13-8.54-2.24-12.8-3.34-.18-.14-.4-.26-.65-.3h-.56c-4.7-1.2-9.38-2.37-14.07-3.54-.15.43-.3.86-.42 1.3 3.1-9.4 5.55-18.98 8-28.56.02-.1.03-.2 0-.32.03 0 .03.03.03.07.5-1.35.7-3.78.9-4.64 1.45-6.03 2.4-12.65 3.5-18.8 0-.1 0-.23 0-.33.73.14 1.47.3 2.22.45-.03.07-.06.15-.07.24-.36 1.5-.75 3-1.08 4.5-.2.9-.8 2.58-.75 3.44 0 .43.57 1.67.97 2.53l.17.36-.06.48c-.1 1.05-.22 2.54-.1 3 .23.73 2.78 3.5 4.45 5.27l.72.78-.36 1.33c-.55 2.25-1.16 4.73-1.88 6.58-.4 1.04-.43 2.97 1.2 2.8.47-.03 1.3-.43 2.15-.9l.4-.22.1.54c.63 3.42 1.64 8.7 2.24 9.5.63.83 3.8.43 4.75.48.62.03 2.2.1 3.65.07l-.8 5.3-2.1 13.7-1.05 6.83v.57l.25.52.42.4.53.2 2.62.45 2.64.44 2.6.45 1.25.22-2.33 17.23-1.34 10.03zm151.1-3.4s0 .02 0 .03c.12.3.23.6.33.9-.1-.28-.2-.6-.3-.9-.7-1.82-1.64-3.5-2.66-5.18l1.62-2.75 1.93-3.4 1.9-3.4 1.18-2.26.12.06.5.06 3.55-.32 3.54-.38 3.53-.4 3.53-.48-2.42.33c-.25.54-.47 1.04-.6 1.35l-3.27 6.55-.26-.12c-.55-.24-1.12-.4-1.6-.2-1.1.4-1.1 1.87-1.36 2.84l-1.6 6.6-5.6 2.5c-.63-.52-1.46-1.16-2.06-1.42zm-4.8-7l-11.64-3.92-.13-2.07-.42-5.92-.44-5.9-.44-5.9.1 1.42c1.95-.26 3.9-.58 5.83-.96.2-.02.38-.1.5-.27 3.75 1.42 7.84.35 12.28-3.1l.5 3.32.58 4.06.6 4.1.57 3.54c.1-.13.2-.26.3-.4-1.55 2.1-3.04 4.24-4.5 6.4l-3.66 5.58zm-103.54-8.26c.04-1.07.07-2.1.04-3.08-.04-1.28.63-2.98-.14-4.1-.46-.64-2.43-.6-3.05-.66-1.42-.17-2.85-.3-4.27-.42l-2.8-.26 1.24-12.95c-.5-.04-1.03-.08-1.55-.12 9.95.77 19.9 1.54 29.87 1.96l4.07.14 1.82 1c.67.37 1.36.72 2.06 1.08-.34-.18-.7-.35-1.03-.53.4 2.28 1.86 6.04 2.54 8.26.96 3.14 1.9 6.3 2.88 9.42.18.6.34 1.27.53 1.9.64.06 1.28.12 1.93.17-11.38-1-22.77-1.44-34.16-1.83zm33.62-3.73L152 117.7l.05-4.83c-.46 0-.93 0-1.4 0 9.1-.1 18.2-.28 27.27-1.15-.5.05-1 .1-1.48.15.12 1.2.25 2.4.42 3.56.13.88 0 2.1.7 2.78.3.27.83.34 1.4.34l.67-.02.14.27c0-.04 0-.08 0-.12.03.47.28.87.64 1.1-.03 0-.05 0-.06-.02l1.7 2.82-.3.33c-1.44 1.46-3.6 3.72-3.7 4.4-.1.48.25 1.85.53 2.82l.07.24-.45.74c-.75 1.22-1.28 1.98-1.65 2.8.34.05.7.08 1.05.13-7-.88-14.07-1.15-21.14-1.38zm80.45-.7l-.9-6.95c-.36-2.7-.75-5.43-1.12-8.16-.06-.37-.23-.7-.48-.9.27-.26.55-.53.82-.8.28.95.74 2.2 1.6 2.23 1.5.04 3.5-.66 5.03-.9 5.1-.8 10.6-2.1 15.77-3.37l1.63-.4 1.8 1.87c.77.78 1.54 1.56 2.32 2.33-.3-.27-.56-.55-.86-.83-.2.68-.3 1.43-.43 1.84-.23.68-1.07 3.5-.9 4.15.1.33.83 1.1 1.63 1.85l1.02.94-2.65 3.06-.64.14c-3.16.7-10.44 2.23-11.4 2.87-.2.15-.42.42-.63.76.46 0 .93 0 1.4 0-2.38 0-4.76.04-7.14.1l-5.85.18zm-151.58-6.9l-2.34-.42-2.63-.46-2.64-.45-1.17-.2 2.94-19.1 1.04-6.76c.17-.36.33-.86.48-1.4l.28-1.12 12.23 1.58c4.5.58 8.98 1.14 13.48 1.62.7.08 3.4.55 5.37.73l-.6 6.44-.68 7.08c-.1.18-.14.36-.16.58 0 .2.03.37.08.56v-.02l-.7 7.5-.6 6.84c.54.1 1.1.18 1.63.3-8.57-1.54-17.27-2.42-25.98-3.28zm111.6-7.2l-.16-.4.58-9.98c.08-1.44.32-3.28.26-4.7-.04-1.4.9-4.24-.6-5.14-.14-.1-.3-.13-.5-.13l-.27.04v-.27c0-.2-.05-.35-.14-.5.67-1.2 1.3-2.8 1.72-3.82l.12-.28 6.46-3.8 2.94 1.17c.05-.14.1-.27.15-.4-.56 1.46-1.1 2.9-1.64 4.36l-.46 1.3-.2-.28c-1.37-1.26-2.17.98-2.48 1.9-.86 2.57-2.48 5.83-3.05 8.35-.2.95 1.62 8.13 2.15 10.38l-1.27 5.36c-.06.08-.1.16-.17.25l-1.8.7c-.44-1.3-1.16-2.87-1.66-4.1zm6.96 2.17c1.24-4.28 1.03-4.36 0-8.68l-1.34-5.7 2.07-6.2c.27.3.52.47.8.43 1.5-.16 1.6-3.16 2.08-4.36.57-1.5.94-3.45 1.4-5.1 1.34 2 5.6 1.2 6.2 3.6 1.85 3.46 1.43 7.1-1.15 10.83 1.33 2.23 2.9.22 4.53-2.3 5.62 4.12 4.03 10.48.82 17.37-.05 0-.1 0-.14 0-2.15-.1-4.28-.1-6.42-.05-.28-.2-.63-.33-1-.3-.34.02-.65.16-.87.37-2.35.1-4.7.24-7.03.4 0-.12.03-.23.06-.33zm66.2-5.52c-.24-2.82-1.27-6.36-1.8-9.22 0-.08-.02-.18-.03-.27l-.9.3 3.3-1.13 3.33-1.14 3.3-1.15 3.3-1.18.45-.25c.34.34.75.56 1.2.67l-1.77 2.53c1.6 1.56 3.54 2.53 6 2.43-6.9 9.1-12.1 12.76-16.14 12.56.9-1.5-.07-2.26-.23-4.17zM182.23 117c-.4-.6-.8-1.1-1.08-1.3-.1-.08-.3-.1-.52-.13l-.76-.02-.18-1.76c-.13-1.23-.34-5.7-.8-6.5-.48-.84-4.18-3.52-5.15-4.32l-2.77-2.27-1.14-6 1.06-1.2c.52-.57 1.03-1.15 1.5-1.74.46-.6 1.24-4.63 1.5-5.68.08-.3.06-.6-.06-.88l4.6-1.8-.08 2.53h1.02c-.02.28.05.6.2.85.32.53 1.2 2.35 1.65 2.64 1.05.7 3.5 1.15 4.8 1.57 1.06.33 2.12.66 3.22.98l2.43.7.2.88c.3 1.25.72 2.82 1.3 3.83.08-.2.14-.35.2-.48-.05.12-.1.27-.2.47-.52 1.37-1.62 3.78-.85 4.8.46.62 1.1.6 1.82.3l.54-.3-.2 3.26c-.12 2.2-.23 4.38-.34 6.57-.07 1.18-.3 3.06-.34 4.55.44.02.9.04 1.33.07-4.65-.32-9.3.04-13.95.4.35 0 .7-.02 1.07-.05zm-33.27-.6l-.92-.63-1.06-.7-.35-.1-8.5-.94-8.52-.8-8.53-.7-6.9-.56L115.5 98c.02-.36-.07-.7-.26-.96 0 0 .02 0 .04 0 .24-1.74.1-4.1.23-5.18 0 0 0-.03 0-.04-.33-.02-.68-.05-1.04-.07 12.1.7 24.23 1.38 36.37 1.36h-1.56c-.07 5.72-.1 11.42-.14 17.12-.02 1.67-.2 4.18-.18 6.2zm119-.43l-1.33-.5c-1.24-.42-2.46-.78-3.05-.7-1.2-1.6-3.14-4.1-3.5-4.25-1.13-.4-6 .8-7.48 1.03-3.96.6-7.93 1.4-11.87 2.18l-2.67.52-.2-.66c-.1-.3-.26-.52-.48-.7.97-1.1 1.96-2.28 2.96-3.58l-1.58-4c3.63-2.02 6.6-2.12 9.37-1.58 2.64-1.43 4.22-3.6 3.17-7.6l4.95-8.3c2.34-.4 4.6-.48 6.92-.88 0 .06 0 .1.02.17l2.6 15.78s0 0 .05-.04c-.43.43-.58 1.02-.4 1.57.13.38.4.68.73.85l1.77 10.7zm-90.04-5.7c-9.08-.56-18.17-.44-27.28-.34.48 0 .97 0 1.45 0l.08-8.67c.03-2.92.23-6.2.1-9.08-.13-2.33-.55-4.9-.78-7.26-.57-5.6-1.2-11.2-1.77-16.8 0-.04 0-.06 0-.1 2.47.05 4.96.05 7.48.04l.63-2.75c1.7 1.15 2.13 2.88 2.1 4.87 8.06.43 16 1.24 23.17 4.94-3.73 2.77-7.15 5.76-9.8 9.4-.13-.1-.3-.17-.47-.2-.8-.2-1.62.3-1.8 1.1l-1.23 4.83c-.9.97-2.72 2.92-2.94 3.53-.3.86.3 2.78.46 3.7.14.92.6 4.18 1 4.84.64 1.05 5.4 4.63 7.58 6.34l.3.2.1 1.34c.55.03 1.1.05 1.63.08zM45 108.42c-11.6-2.85-23.24-5.6-34.85-8.37-.3-.07-.57-.05-.83.04 0-.1-.03-.17-.04-.26 4.22-8.73 8.2-17.77 10.58-28.63l4.13 1.7-.02.2c-.18 1.63-.42 4.06 0 4.62.86 1.2 5.14 1.2 6.56 1.48 2.67.54 5.63.83 8.33 1.23 3.47.5 7.7 1.4 11.13 1.6.23 0 .6.08.97.16.1-.46.23-.9.34-1.35-2.42 9.57-4.82 19.18-6.54 28.9.1-.43.17-.88.25-1.32zm219.68-21.56c0-.07-.03-.13-.06-.18 2.37-.56 4.88-1.53 7.64-3.6.37-.43.72-.88 1.05-1.36.8 3 1.64 6 2.55 8.96l2.48 7.8-5.3 1.77c-1.8.62-3.56 1.22-5.34 1.82-.98-5.08-2.05-10.17-3.04-15.23zm-151.82 9.85l-18.98-2.65c-1.7-.2-3.37-.5-5.05-.7-2.1-.24-7.66-1.6-9.37-.9-.33.1-.67 1.03-.94 2l-.35 1.3H71.2l-.64-3.4c-.3-1.55-.6-3.08-.97-4.53-.35-1.32-.1-2.88-1.56-3.37-.23-.07-.6 0-1 .12l-.58.26.6-1.94c.64-2.17 1.2-4.28 1.14-4.94-.07-.78-3.7-4.62-5.26-6.3v-.3c.1-1 .22-2.3.1-2.9-.07-.38-.3-.93-.55-1.5L62 65.9l1.68-7c.03-.1.04-.22.04-.33 17.05 3.37 34.4 6.02 52.12 7.66-.08.1-.14.25-.15.4l-2.15 22.52c0-.02.05-.04.34-.22-.6.42-.84.82-.85 1.26-.02.47.18.9.18.8.27.34.2.28.14.2l-.53 5.52zm167.75-.2l-.75-2.08-1.68-4.52-1.74-4.48-1.8-4.48c-.1-.23-.3-.42-.54-.47 2.65-4.48 4.02-10.54 4.02-18.25l2.33 2 2.62-2.64c4.15 3.1 5.03 7.54 5.58 12.12 2.84.26 4.58 2.52 6 5.37-1.56 2.35-3.5 4.63-6.2 6.72.02-1.32-.87-1.95-2-2.42l-.64 5.37c-2.6.82-4.36 3.37-5.2 7.74zm-85.77-3.46l-.2-.67c-.27-.97-.57-1.75-.78-1.93-.92-.76-5.6-1.9-7-2.33L183.13 87l-.97-1.7c-.07-.1-.13-.2-.22-.3 2.64-2.56 5.16-5.15 10.7-7.07-1.07 1.45-1.86 3.06-2.1 5.05 5.28-.83 5.55 3.14 8.22 2.42.8-1.82 2.95-3 7.36-3.15 4.6 1.25 6.9 3.46 8.12 6.1-2.2 0-5-.84-5.76.57-.78-.4-3.57-2.03-4.08-2.05-.72-.02-2.8 1.24-3.54 1.58-.95.45-4.2 1.9-4.82 2.5-.22.22-.6.93-1.03 1.75l-.17.36zm-79.06-4.22c-.38-.02-.77-.05-1.15-.07.38.02.77.05 1.15.07.1-1.62.17-3.27.28-4.83.38-5.74.75-11.5 1.13-17.27 0-.14-.02-.27-.1-.4 9.76.87 19.64 1.44 29.66 1.64 0 .14-.02.3 0 .42.8 7.67 1.6 15.35 2.44 23 .57.08 1.14.13 1.72.2-11.7-1.3-23.4-2.07-35.13-2.76zM53.9 80.32c.03 0 .06.02.06.04-.02-.04-.05-.08-.05-.04zm-1.96-.7L26.8 75.65l.18-1.77c.1-1.28.1-2.5-.25-2.85-.8-.82-4.64-2.1-5.94-2.67-.13-.04-.24-.07-.35-.1.87-4.64 1.45-9.62 1.65-15.05 5.42 4.1 10 6.17 10.2-1.67 8.3 2.07 16.62 4 25 5.75-.07.1-.12.2-.15.3-.96 3.88-1.9 7.75-2.83 11.63l-2.38 10.42z"/></g></g></g></g></svg>