<svg xmlns="http://www.w3.org/2000/svg" width="300" height="300"><path d="M69.78 61.33C69.78 47.33 81.1 36 95.1 36s25.34 11.34 25.34 25.33c0 14-11.33 25.34-25.33 25.34-13.98 0-25.32-11.34-25.32-25.34zm185.77 92.9v-3.45c0-2.77-2.24-5-5-5h-20.33V88.5c0-2.86-.67-5.7-1.94-8.25l-4.07-8.12 5.9-20.77c.23-.82.13-1.7-.3-2.46-.43-.74-1.14-1.3-1.97-1.53l-10.16-2.8c-1.75-.5-3.55.52-4.04 2.24L192.33 122c-.22.82-.1 1.7.3 2.46.44.75 1.15 1.3 1.98 1.53l10.17 2.8c1.75.48 3.55-.52 4.04-2.25l4.6-16.18 8.38-4.64v31.63H209.1c-.26 0-.58.05-.94.15-2.04.55-3.35 2.53-3.07 4.64.27 2.1 2.06 3.66 4.18 3.66h-66.95c-2.76 0-5 2.23-5 5v6.9c0 2.75 2.24 5 5 5h79.45v84.43h-20.34c-2.76 0-5 2.25-5 5v6.9c0 2.77 2.24 5 5 5H250.56c2.76 0 5-2.23 5-5V154.22zm-135.1 50.66H61.32V112c0-4.67-3.78-8.44-8.44-8.44-4.68 0-8.46 3.77-8.46 8.44v101.33c0 4.67 3.78 8.45 8.45 8.45H78.2v25.33h-8.44c-4.67 0-8.45 3.8-8.45 8.46S65.1 264 69.78 264s8.44-3.78 8.44-8.44h16.9c0 4.66 3.77 8.44 8.43 8.44 4.67 0 8.45-3.78 8.45-8.44s-3.78-8.45-8.45-8.45H95.1V221.8h25.34c4.67 0 8.45-3.78 8.45-8.45s-3.8-8.44-8.46-8.44zm50.66 42.2h-8.43V188c0-9.33-7.57-16.9-16.9-16.9H112v-42.58l11 6.88c2.03 1.26 4.35 1.93 6.73 1.93h28.7c7 0 12.68-5.67 12.68-12.67S165.45 112 158.45 112h-25.08L111.6 98.93c-4.16-2.5-8.92-3.82-13.77-3.82H86.67c-9.33 0-16.9 7.57-16.9 16.9v67.56c0 9.32 7.57 16.88 16.9 16.88H137.34v59.12c0 4.66 3.78 8.44 8.45 8.44h25.33c4.67 0 8.46-3.78 8.46-8.44s-3.8-8.45-8.45-8.45z"/></svg>