<?xml version="1.0" encoding="UTF-8"?>
<svg id="Layer_1" data-name="Layer 1" xmlns="http://www.w3.org/2000/svg" viewBox="0 0 817.32 306.93">
  <defs>
    <style>
      .cls-1 {
        fill: #055b76;
        fill-rule: evenodd;
      }
    </style>
  </defs>
  <path class="cls-1" d="M341.23,107.74l-6.78,18.8h13.56l-6.78-18.8ZM341.23,107.74l-6.78,18.8h13.56l-6.78-18.8ZM341.23,107.74l-6.78,18.8h13.56l-6.78-18.8ZM341.23,107.74l-6.78,18.8h13.56l-6.78-18.8ZM341.23,107.74l-6.78,18.8h13.56l-6.78-18.8ZM478.61,106.77h-9.69v11.82h9.69c3.88,0,6.59-2.13,6.59-5.81,0-3.88-2.91-6.01-6.59-6.01ZM478.61,106.77h-9.69v11.82h9.69c3.88,0,6.59-2.13,6.59-5.81,0-3.88-2.91-6.01-6.59-6.01ZM341.23,107.74l-6.78,18.8h13.56l-6.78-18.8ZM341.23,107.74l-6.78,18.8h13.56l-6.78-18.8ZM478.61,106.77h-9.69v11.82h9.69c3.88,0,6.59-2.13,6.59-5.81,0-3.88-2.91-6.01-6.59-6.01ZM558.05,106.77h-7.94v27.32h7.94c8.53,0,13.56-6.2,13.56-13.56h0c.19-7.94-4.46-13.76-13.56-13.76ZM478.61,106.77h-9.69v11.82h9.69c3.88,0,6.59-2.13,6.59-5.81,0-3.88-2.91-6.01-6.59-6.01ZM341.23,107.74l-6.78,18.8h13.56l-6.78-18.8ZM558.05,106.77h-7.94v27.32h7.94c8.53,0,13.56-6.2,13.56-13.56h0c.19-7.94-4.46-13.76-13.56-13.76ZM341.23,107.74l-6.78,18.8h13.56l-6.78-18.8ZM478.61,106.77h-9.69v11.82h9.69c3.88,0,6.59-2.13,6.59-5.81,0-3.88-2.91-6.01-6.59-6.01ZM558.05,106.77h-7.94v27.32h7.94c8.53,0,13.56-6.2,13.56-13.56h0c.19-7.94-4.46-13.76-13.56-13.76ZM478.61,106.77h-9.69v11.82h9.69c3.88,0,6.59-2.13,6.59-5.81,0-3.88-2.91-6.01-6.59-6.01ZM341.23,107.74l-6.78,18.8h13.56l-6.78-18.8ZM558.05,106.77h-7.94v27.32h7.94c8.53,0,13.56-6.2,13.56-13.56h0c.19-7.94-4.46-13.76-13.56-13.76ZM341.23,107.74l-6.78,18.8h13.56l-6.78-18.8ZM478.61,106.77h-9.69v11.82h9.69c3.88,0,6.59-2.13,6.59-5.81,0-3.88-2.91-6.01-6.59-6.01ZM558.05,106.77h-7.94v27.32h7.94c8.53,0,13.56-6.2,13.56-13.56h0c.19-7.94-4.46-13.76-13.56-13.76ZM701.44,106.77h-7.94v27.32h7.94c8.53,0,13.76-6.2,13.76-13.56h0c0-7.94-4.84-13.76-13.76-13.76ZM701.44,106.77h-7.94v27.32h7.94c8.53,0,13.76-6.2,13.76-13.56h0c0-7.94-4.84-13.76-13.76-13.76ZM478.61,106.77h-9.69v11.82h9.69c3.88,0,6.59-2.13,6.59-5.81,0-3.88-2.91-6.01-6.59-6.01ZM341.23,107.74l-6.78,18.8h13.56l-6.78-18.8ZM558.05,106.77h-7.94v27.32h7.94c8.53,0,13.56-6.2,13.56-13.56h0c.19-7.94-4.46-13.76-13.56-13.76ZM341.23,107.74l-6.78,18.8h13.56l-6.78-18.8ZM478.61,106.77h-9.69v11.82h9.69c3.88,0,6.59-2.13,6.59-5.81,0-3.88-2.91-6.01-6.59-6.01ZM558.05,106.77h-7.94v27.32h7.94c8.53,0,13.56-6.2,13.56-13.56h0c.19-7.94-4.46-13.76-13.56-13.76ZM701.44,106.77h-7.94v27.32h7.94c8.53,0,13.76-6.2,13.76-13.56h0c0-7.94-4.84-13.76-13.76-13.76ZM701.44,106.77h-7.94v27.32h7.94c8.53,0,13.76-6.2,13.76-13.56h0c0-7.94-4.84-13.76-13.76-13.76ZM478.61,106.77h-9.69v11.82h9.69c3.88,0,6.59-2.13,6.59-5.81,0-3.88-2.91-6.01-6.59-6.01ZM341.23,107.74l-6.78,18.8h13.56l-6.78-18.8ZM558.05,106.77h-7.94v27.32h7.94c8.53,0,13.56-6.2,13.56-13.56h0c.19-7.94-4.46-13.76-13.56-13.76ZM341.23,107.74l-6.78,18.8h13.56l-6.78-18.8ZM478.61,106.77h-9.69v11.82h9.69c3.88,0,6.59-2.13,6.59-5.81,0-3.88-2.91-6.01-6.59-6.01ZM558.05,106.77h-7.94v27.32h7.94c8.53,0,13.56-6.2,13.56-13.56h0c.19-7.94-4.46-13.76-13.56-13.76ZM701.44,106.77h-7.94v27.32h7.94c8.53,0,13.76-6.2,13.76-13.56h0c0-7.94-4.84-13.76-13.76-13.76ZM701.44,106.77h-7.94v27.32h7.94c8.53,0,13.76-6.2,13.76-13.56h0c0-7.94-4.84-13.76-13.76-13.76ZM478.61,106.77h-9.69v11.82h9.69c3.88,0,6.59-2.13,6.59-5.81,0-3.88-2.91-6.01-6.59-6.01ZM341.23,107.74l-6.78,18.8h13.56l-6.78-18.8ZM558.05,106.77h-7.94v27.32h7.94c8.53,0,13.56-6.2,13.56-13.56h0c.19-7.94-4.46-13.76-13.56-13.76ZM341.23,107.74l-6.78,18.8h13.56l-6.78-18.8ZM478.61,106.77h-9.69v11.82h9.69c3.88,0,6.59-2.13,6.59-5.81,0-3.88-2.91-6.01-6.59-6.01ZM558.05,106.77h-7.94v27.32h7.94c8.53,0,13.56-6.2,13.56-13.56h0c.19-7.94-4.46-13.76-13.56-13.76ZM701.44,106.77h-7.94v27.32h7.94c8.53,0,13.76-6.2,13.76-13.56h0c0-7.94-4.84-13.76-13.76-13.76ZM701.44,106.77h-7.94v27.32h7.94c8.53,0,13.76-6.2,13.76-13.56h0c0-7.94-4.84-13.76-13.76-13.76ZM478.61,106.77h-9.69v11.82h9.69c3.88,0,6.59-2.13,6.59-5.81,0-3.88-2.91-6.01-6.59-6.01ZM341.23,107.74l-6.78,18.8h13.56l-6.78-18.8ZM558.05,106.77h-7.94v27.32h7.94c8.53,0,13.56-6.2,13.56-13.56h0c.19-7.94-4.46-13.76-13.56-13.76ZM777.01,0H40.3C18.21,0,0,18.21,0,40.3v226.32c0,22.09,18.21,40.3,40.3,40.3h736.71c22.09,0,40.3-18.21,40.3-40.3V40.3c0-22.09-18.21-40.3-40.3-40.3ZM588.48,98.43h9.3v43.79h-9.3v-43.79ZM540.81,98.43h17.25c13.76,0,23.25,8.72,23.25,21.9s-9.49,21.9-23.25,21.9h-17.25v-43.79ZM502.25,98.43h31v8.14h-21.7v9.3h21.12v8.14h-21.12v9.88h21.7v8.14h-31v-43.6h0ZM277.09,300.73H40.3c-18.6,0-33.91-15.31-34.1-34.1V40.3C6.2,21.7,21.51,6.39,40.3,6.2h236.79v294.53ZM346.85,217.41h-23.64v-43.79h23.06c8.33,0,12.59,5.23,12.59,11.04,0,5.43-3.49,9.11-7.56,10.08,4.65.78,8.33,5.23,8.33,10.66,0,6.78-4.46,12.01-12.79,12.01ZM353.24,142.23l-2.71-7.36h-18.8l-2.71,7.36h-10.66l16.86-43.79h11.63l16.86,43.79h-10.46ZM406.72,199.78c0,10.85-6.39,18.21-19.76,18.21s-19.96-7.56-19.96-18.21v-26.35h9.49v25.97c0,6.01,3.49,10.27,10.27,10.27s10.27-4.26,10.27-10.27v-25.97h9.49v26.35h.19ZM389.67,143c-12.98,0-23.25-9.11-23.25-22.67s10.08-22.67,23.25-22.67c7.56-.19,14.73,3.88,18.21,10.66l-7.94,3.88c-1.94-3.88-6.01-6.39-10.27-6.39-7.94,0-13.76,6.01-13.76,14.34s5.81,14.34,13.76,14.34c4.26,0,8.33-2.52,10.27-6.39l7.94,4.07c-3.1,5.62-8.53,10.85-18.21,10.85ZM431.14,218.18c-8.33,0-14.34-2.91-18.41-6.98l5.04-7.17c3.68,3.88,8.72,6.01,13.95,5.81,5.04,0,7.56-2.33,7.56-4.84,0-3.29-4.07-4.07-8.91-5.23-7.17-1.55-16.28-3.49-16.28-13.56,0-7.17,6.39-13.37,16.66-13.37,6.98,0,12.79,2.13,17.05,6.01l-5.23,6.78c-3.49-3.1-7.94-4.84-12.79-4.84-4.07,0-6.2,1.74-6.2,4.46,0,2.91,4.07,3.68,8.72,4.84,7.17,1.74,16.47,3.88,16.47,13.76,0,8.33-5.81,14.34-17.63,14.34ZM435.2,134.67c4.26,0,8.33-2.52,10.27-6.39l7.94,3.88c-3.1,5.43-8.72,10.66-18.21,10.66-13.18.19-23.25-9.11-23.25-22.48s10.08-22.67,23.25-22.67c7.56-.19,14.73,3.88,18.21,10.66l-7.94,3.88c-1.94-3.88-6.01-6.39-10.27-6.39-7.94,0-13.76,6.01-13.76,14.34s5.81,14.53,13.76,14.53ZM464.85,217.41h-9.3v-43.79h9.3v43.79ZM468.92,142.23h-9.3v-43.79h20.54c9.11,0,14.73,6.01,14.73,14.15s-4.84,12.01-9.49,12.98l9.88,16.66h-10.66l-8.53-15.5h-6.78v15.5h-.39ZM512.91,217.41h-8.91l-20.93-28.48v28.48h-9.3v-43.79h9.49l20.35,27.52v-27.52h9.3v43.79h0ZM553.21,181.76h-21.7v9.3h21.12v8.14h-21.12v9.88h21.7v8.14h-31v-43.79h31v8.33ZM576.46,218.18c-8.33,0-14.34-2.91-18.6-6.98l5.04-7.17c3.68,3.88,8.72,6.01,13.95,5.81,5.04,0,7.56-2.33,7.56-4.84,0-3.29-4.07-4.07-8.91-5.23-7.17-1.55-16.28-3.49-16.28-13.56,0-7.17,6.2-13.37,16.66-13.37,6.98,0,12.79,2.13,17.05,6.01l-5.23,6.78c-3.49-3.1-8.14-4.84-12.79-4.84-4.07,0-6.2,1.74-6.2,4.46,0,2.91,4.07,3.68,8.72,4.84,7.17,1.74,16.47,3.88,16.47,13.76,0,8.33-5.62,14.34-17.44,14.34ZM616.18,218.18c-8.33,0-14.34-2.91-18.41-6.98l5.04-7.17c3.68,3.88,8.72,6.01,13.95,5.81,5.04,0,7.56-2.33,7.56-4.84,0-3.29-4.07-4.07-8.91-5.23-7.17-1.55-16.28-3.49-16.28-13.56,0-7.17,6.2-13.37,16.66-13.37,6.98,0,12.79,2.13,17.05,6.01l-5.23,6.78c-3.49-3.1-7.94-4.84-12.79-4.84-4.07,0-6.2,1.74-6.2,4.46,0,2.91,4.07,3.68,8.72,4.84,7.17,1.74,16.47,3.88,16.47,13.76-.19,8.33-5.81,14.34-17.63,14.34ZM639.05,106.77h-12.79v35.46h-9.3v-35.46h-12.79v-8.14h34.88v8.14ZM676.45,106.77h-21.7v9.3h21.12v8.14h-21.12v9.88h21.7v8.14h-31v-43.79h31v8.33h0ZM701.44,142.23h-17.25v-43.79h17.25c13.76,0,23.25,8.72,23.25,21.9-.19,13.18-9.69,21.9-23.25,21.9ZM701.44,106.77h-7.94v27.32h7.94c8.53,0,13.76-6.2,13.76-13.56h0c0-7.94-4.84-13.76-13.76-13.76ZM571.81,120.33h0c0-7.75-4.65-13.76-13.56-13.76h-7.94v27.32h7.94c8.53.19,13.56-6.01,13.56-13.56ZM485.2,112.58c0-3.68-2.71-5.81-6.59-5.81h-9.69v11.82h9.69c3.68,0,6.59-2.33,6.59-6.01ZM349.36,186.41h0c0-2.71-2.13-4.84-4.84-4.84h-12.01v9.49h11.63c3.1,0,5.23-1.94,5.23-4.65ZM344.52,199.19h-12.01v10.08h12.01c3.49,0,5.62-1.94,5.62-5.04,0-2.71-1.94-5.04-5.62-5.04ZM334.44,126.53h13.56l-6.78-18.8-6.78,18.8ZM558.05,106.77h-7.94v27.32h7.94c8.53,0,13.56-6.2,13.56-13.56h0c.19-7.94-4.46-13.76-13.56-13.76ZM341.23,107.74l-6.78,18.8h13.56l-6.78-18.8ZM478.61,106.77h-9.69v11.82h9.69c3.88,0,6.59-2.13,6.59-5.81,0-3.88-2.91-6.01-6.59-6.01ZM701.44,106.77h-7.94v27.32h7.94c8.53,0,13.76-6.2,13.76-13.56h0c0-7.94-4.84-13.76-13.76-13.76ZM701.44,106.77h-7.94v27.32h7.94c8.53,0,13.76-6.2,13.76-13.56h0c0-7.94-4.84-13.76-13.76-13.76ZM558.05,106.77h-7.94v27.32h7.94c8.53,0,13.56-6.2,13.56-13.56h0c.19-7.94-4.46-13.76-13.56-13.76ZM478.61,106.77h-9.69v11.82h9.69c3.88,0,6.59-2.13,6.59-5.81,0-3.88-2.91-6.01-6.59-6.01ZM341.23,107.74l-6.78,18.8h13.56l-6.78-18.8ZM558.05,106.77h-7.94v27.32h7.94c8.53,0,13.56-6.2,13.56-13.56h0c.19-7.94-4.46-13.76-13.56-13.76ZM341.23,107.74l-6.78,18.8h13.56l-6.78-18.8ZM478.61,106.77h-9.69v11.82h9.69c3.88,0,6.59-2.13,6.59-5.81,0-3.88-2.91-6.01-6.59-6.01ZM701.44,106.77h-7.94v27.32h7.94c8.53,0,13.76-6.2,13.76-13.56h0c0-7.94-4.84-13.76-13.76-13.76ZM701.44,106.77h-7.94v27.32h7.94c8.53,0,13.76-6.2,13.76-13.56h0c0-7.94-4.84-13.76-13.76-13.76ZM558.05,106.77h-7.94v27.32h7.94c8.53,0,13.56-6.2,13.56-13.56h0c.19-7.94-4.46-13.76-13.56-13.76ZM478.61,106.77h-9.69v11.82h9.69c3.88,0,6.59-2.13,6.59-5.81,0-3.88-2.91-6.01-6.59-6.01ZM341.23,107.74l-6.78,18.8h13.56l-6.78-18.8ZM558.05,106.77h-7.94v27.32h7.94c8.53,0,13.56-6.2,13.56-13.56h0c.19-7.94-4.46-13.76-13.56-13.76ZM341.23,107.74l-6.78,18.8h13.56l-6.78-18.8ZM478.61,106.77h-9.69v11.82h9.69c3.88,0,6.59-2.13,6.59-5.81,0-3.88-2.91-6.01-6.59-6.01ZM701.44,106.77h-7.94v27.32h7.94c8.53,0,13.76-6.2,13.76-13.56h0c0-7.94-4.84-13.76-13.76-13.76ZM701.44,106.77h-7.94v27.32h7.94c8.53,0,13.76-6.2,13.76-13.56h0c0-7.94-4.84-13.76-13.76-13.76ZM558.05,106.77h-7.94v27.32h7.94c8.53,0,13.56-6.2,13.56-13.56h0c.19-7.94-4.46-13.76-13.56-13.76ZM478.61,106.77h-9.69v11.82h9.69c3.88,0,6.59-2.13,6.59-5.81,0-3.88-2.91-6.01-6.59-6.01ZM341.23,107.74l-6.78,18.8h13.56l-6.78-18.8ZM558.05,106.77h-7.94v27.32h7.94c8.53,0,13.56-6.2,13.56-13.56h0c.19-7.94-4.46-13.76-13.56-13.76ZM341.23,107.74l-6.78,18.8h13.56l-6.78-18.8ZM478.61,106.77h-9.69v11.82h9.69c3.88,0,6.59-2.13,6.59-5.81,0-3.88-2.91-6.01-6.59-6.01ZM701.44,106.77h-7.94v27.32h7.94c8.53,0,13.76-6.2,13.76-13.56h0c0-7.94-4.84-13.76-13.76-13.76ZM701.44,106.77h-7.94v27.32h7.94c8.53,0,13.76-6.2,13.76-13.56h0c0-7.94-4.84-13.76-13.76-13.76ZM558.05,106.77h-7.94v27.32h7.94c8.53,0,13.56-6.2,13.56-13.56h0c.19-7.94-4.46-13.76-13.56-13.76ZM478.61,106.77h-9.69v11.82h9.69c3.88,0,6.59-2.13,6.59-5.81,0-3.88-2.91-6.01-6.59-6.01ZM341.23,107.74l-6.78,18.8h13.56l-6.78-18.8ZM558.05,106.77h-7.94v27.32h7.94c8.53,0,13.56-6.2,13.56-13.56h0c.19-7.94-4.46-13.76-13.56-13.76ZM341.23,107.74l-6.78,18.8h13.56l-6.78-18.8ZM478.61,106.77h-9.69v11.82h9.69c3.88,0,6.59-2.13,6.59-5.81,0-3.88-2.91-6.01-6.59-6.01ZM558.05,106.77h-7.94v27.32h7.94c8.53,0,13.56-6.2,13.56-13.56h0c.19-7.94-4.46-13.76-13.56-13.76ZM478.61,106.77h-9.69v11.82h9.69c3.88,0,6.59-2.13,6.59-5.81,0-3.88-2.91-6.01-6.59-6.01ZM341.23,107.74l-6.78,18.8h13.56l-6.78-18.8ZM558.05,106.77h-7.94v27.32h7.94c8.53,0,13.56-6.2,13.56-13.56h0c.19-7.94-4.46-13.76-13.56-13.76ZM341.23,107.74l-6.78,18.8h13.56l-6.78-18.8ZM478.61,106.77h-9.69v11.82h9.69c3.88,0,6.59-2.13,6.59-5.81,0-3.88-2.91-6.01-6.59-6.01ZM558.05,106.77h-7.94v27.32h7.94c8.53,0,13.56-6.2,13.56-13.56h0c.19-7.94-4.46-13.76-13.56-13.76ZM478.61,106.77h-9.69v11.82h9.69c3.88,0,6.59-2.13,6.59-5.81,0-3.88-2.91-6.01-6.59-6.01ZM341.23,107.74l-6.78,18.8h13.56l-6.78-18.8ZM341.23,107.74l-6.78,18.8h13.56l-6.78-18.8ZM478.61,106.77h-9.69v11.82h9.69c3.88,0,6.59-2.13,6.59-5.81,0-3.88-2.91-6.01-6.59-6.01ZM478.61,106.77h-9.69v11.82h9.69c3.88,0,6.59-2.13,6.59-5.81,0-3.88-2.91-6.01-6.59-6.01ZM341.23,107.74l-6.78,18.8h13.56l-6.78-18.8ZM341.23,107.74l-6.78,18.8h13.56l-6.78-18.8ZM341.23,107.74l-6.78,18.8h13.56l-6.78-18.8Z"/>
  <path class="cls-1" d="M180.4,67.24l-35.46-25.77c-5.04-3.49-7.56-9.69-3.29-15.5l-3.1-2.13-20.15,27.9c-9.49,13.18-6.01,35.46,6.98,44.95l33.13,24.22c6.78,4.84,7.56,17.44,2.71,24.03l2.91,2.13,22.86-32.17c10.27-14.73,9.69-36.04-6.59-47.67ZM147.07,131.18l-24.22-17.63c-2.91-2.13-3.29-5.04-1.55-8.33l-3.49-2.71-12.98,17.83c-6.39,8.91-4.46,24.8,4.46,31.2l24.03,17.25c4.07,2.91,4.46,6.01,2.52,9.11l3.49,2.52,12.21-16.86c7.36-10.08,6.78-24.41-4.46-32.36ZM188.73,186.79h-99.79l-3.49,11.82h26.74l4.84,16.28h43.79l4.84-16.28h26.74l-3.68-11.82ZM242.02,270.7c2.13-.58,3.68-1.74,3.68-4.07h0c0-.97-.39-1.94-1.16-2.71-1.16-.97-2.52-1.55-4.07-1.55h-6.39v13.95h2.13v-5.23h3.49l4.07,5.23h2.52l-4.26-5.62ZM236.2,269.15v-4.84h4.07c1.94,0,3.1.97,3.1,2.33h0c0,1.55-1.36,2.52-3.29,2.52h-3.88ZM242.02,270.7c2.13-.58,3.68-1.74,3.68-4.07h0c0-.97-.39-1.94-1.16-2.71-1.16-.97-2.52-1.55-4.07-1.55h-6.39v13.95h2.13v-5.23h3.49l4.07,5.23h2.52l-4.26-5.62ZM236.2,269.15v-4.84h4.07c1.94,0,3.1.97,3.1,2.33h0c0,1.55-1.36,2.52-3.29,2.52h-3.88ZM242.02,270.7c2.13-.58,3.68-1.74,3.68-4.07h0c0-.97-.39-1.94-1.16-2.71-1.16-.97-2.52-1.55-4.07-1.55h-6.39v13.95h2.13v-5.23h3.49l4.07,5.23h2.52l-4.26-5.62ZM236.2,269.15v-4.84h4.07c1.94,0,3.1.97,3.1,2.33h0c0,1.55-1.36,2.52-3.29,2.52h-3.88ZM242.02,270.7c2.13-.58,3.68-1.74,3.68-4.07h0c0-.97-.39-1.94-1.16-2.71-1.16-.97-2.52-1.55-4.07-1.55h-6.39v13.95h2.13v-5.23h3.49l4.07,5.23h2.52l-4.26-5.62ZM236.2,269.15v-4.84h4.07c1.94,0,3.1.97,3.1,2.33h0c0,1.55-1.36,2.52-3.29,2.52h-3.88ZM242.02,270.7c2.13-.58,3.68-1.74,3.68-4.07h0c0-.97-.39-1.94-1.16-2.71-1.16-.97-2.52-1.55-4.07-1.55h-6.39v13.95h2.13v-5.23h3.49l4.07,5.23h2.52l-4.26-5.62ZM236.2,269.15v-4.84h4.07c1.94,0,3.1.97,3.1,2.33h0c0,1.55-1.36,2.52-3.29,2.52h-3.88ZM242.02,270.7c2.13-.58,3.68-1.74,3.68-4.07h0c0-.97-.39-1.94-1.16-2.71-1.16-.97-2.52-1.55-4.07-1.55h-6.39v13.95h2.13v-5.23h3.49l4.07,5.23h2.52l-4.26-5.62ZM236.2,269.15v-4.84h4.07c1.94,0,3.1.97,3.1,2.33h0c0,1.55-1.36,2.52-3.29,2.52h-3.88ZM242.02,270.7c2.13-.58,3.68-1.74,3.68-4.07h0c0-.97-.39-1.94-1.16-2.71-1.16-.97-2.52-1.55-4.07-1.55h-6.39v13.95h2.13v-5.23h3.49l4.07,5.23h2.52l-4.26-5.62ZM236.2,269.15v-4.84h4.07c1.94,0,3.1.97,3.1,2.33h0c0,1.55-1.36,2.52-3.29,2.52h-3.88ZM242.02,270.7c2.13-.58,3.68-1.74,3.68-4.07h0c0-.97-.39-1.94-1.16-2.71-1.16-.97-2.52-1.55-4.07-1.55h-6.39v13.95h2.13v-5.23h3.49l4.07,5.23h2.52l-4.26-5.62ZM236.2,269.15v-4.84h4.07c1.94,0,3.1.97,3.1,2.33h0c0,1.55-1.36,2.52-3.29,2.52h-3.88ZM242.02,270.7c2.13-.58,3.68-1.74,3.68-4.07h0c0-.97-.39-1.94-1.16-2.71-1.16-.97-2.52-1.55-4.07-1.55h-6.39v13.95h2.13v-5.23h3.49l4.07,5.23h2.52l-4.26-5.62ZM236.2,269.15v-4.84h4.07c1.94,0,3.1.97,3.1,2.33h0c0,1.55-1.36,2.52-3.29,2.52h-3.88ZM242.02,270.7c2.13-.58,3.68-1.74,3.68-4.07h0c0-.97-.39-1.94-1.16-2.71-1.16-.97-2.52-1.55-4.07-1.55h-6.39v13.95h2.13v-5.23h3.49l4.07,5.23h2.52l-4.26-5.62ZM236.2,269.15v-4.84h4.07c1.94,0,3.1.97,3.1,2.33h0c0,1.55-1.36,2.52-3.29,2.52h-3.88ZM242.02,270.7c2.13-.58,3.68-1.74,3.68-4.07h0c0-.97-.39-1.94-1.16-2.71-1.16-.97-2.52-1.55-4.07-1.55h-6.39v13.95h2.13v-5.23h3.49l4.07,5.23h2.52l-4.26-5.62ZM236.2,269.15v-4.84h4.07c1.94,0,3.1.97,3.1,2.33h0c0,1.55-1.36,2.52-3.29,2.52h-3.88ZM242.02,270.7c2.13-.58,3.68-1.74,3.68-4.07h0c0-.97-.39-1.94-1.16-2.71-1.16-.97-2.52-1.55-4.07-1.55h-6.39v13.95h2.13v-5.23h3.49l4.07,5.23h2.52l-4.26-5.62ZM236.2,269.15v-4.84h4.07c1.94,0,3.1.97,3.1,2.33h0c0,1.55-1.36,2.52-3.29,2.52h-3.88ZM242.02,270.7c2.13-.58,3.68-1.74,3.68-4.07h0c0-.97-.39-1.94-1.16-2.71-1.16-.97-2.52-1.55-4.07-1.55h-6.39v13.95h2.13v-5.23h3.49l4.07,5.23h2.52l-4.26-5.62ZM236.2,269.15v-4.84h4.07c1.94,0,3.1.97,3.1,2.33h0c0,1.55-1.36,2.52-3.29,2.52h-3.88ZM242.02,270.7c2.13-.58,3.68-1.74,3.68-4.07h0c0-.97-.39-1.94-1.16-2.71-1.16-.97-2.52-1.55-4.07-1.55h-6.39v13.95h2.13v-5.23h3.49l4.07,5.23h2.52l-4.26-5.62ZM236.2,269.15v-4.84h4.07c1.94,0,3.1.97,3.1,2.33h0c0,1.55-1.36,2.52-3.29,2.52h-3.88ZM242.02,270.7c2.13-.58,3.68-1.74,3.68-4.07h0c0-.97-.39-1.94-1.16-2.71-1.16-.97-2.52-1.55-4.07-1.55h-6.39v13.95h2.13v-5.23h3.49l4.07,5.23h2.52l-4.26-5.62ZM236.2,269.15v-4.84h4.07c1.94,0,3.1.97,3.1,2.33h0c0,1.55-1.36,2.52-3.29,2.52h-3.88ZM242.02,270.7c2.13-.58,3.68-1.74,3.68-4.07h0c0-.97-.39-1.94-1.16-2.71-1.16-.97-2.52-1.55-4.07-1.55h-6.39v13.95h2.13v-5.23h3.49l4.07,5.23h2.52l-4.26-5.62ZM236.2,269.15v-4.84h4.07c1.94,0,3.1.97,3.1,2.33h0c0,1.55-1.36,2.52-3.29,2.52h-3.88ZM242.02,270.7c2.13-.58,3.68-1.74,3.68-4.07h0c0-.97-.39-1.94-1.16-2.71-1.16-.97-2.52-1.55-4.07-1.55h-6.39v13.95h2.13v-5.23h3.49l4.07,5.23h2.52l-4.26-5.62ZM236.2,269.15v-4.84h4.07c1.94,0,3.1.97,3.1,2.33h0c0,1.55-1.36,2.52-3.29,2.52h-3.88ZM242.02,270.7c2.13-.58,3.68-1.74,3.68-4.07h0c0-.97-.39-1.94-1.16-2.71-1.16-.97-2.52-1.55-4.07-1.55h-6.39v13.95h2.13v-5.23h3.49l4.07,5.23h2.52l-4.26-5.62ZM236.2,269.15v-4.84h4.07c1.94,0,3.1.97,3.1,2.33h0c0,1.55-1.36,2.52-3.29,2.52h-3.88ZM242.02,270.7c2.13-.58,3.68-1.74,3.68-4.07h0c0-.97-.39-1.94-1.16-2.71-1.16-.97-2.52-1.55-4.07-1.55h-6.39v13.95h2.13v-5.23h3.49l4.07,5.23h2.52l-4.26-5.62ZM236.2,269.15v-4.84h4.07c1.94,0,3.1.97,3.1,2.33h0c0,1.55-1.36,2.52-3.29,2.52h-3.88ZM242.02,270.7c2.13-.58,3.68-1.74,3.68-4.07h0c0-.97-.39-1.94-1.16-2.71-1.16-.97-2.52-1.55-4.07-1.55h-6.39v13.95h2.13v-5.23h3.49l4.07,5.23h2.52l-4.26-5.62ZM236.2,269.15v-4.84h4.07c1.94,0,3.1.97,3.1,2.33h0c0,1.55-1.36,2.52-3.29,2.52h-3.88ZM242.02,270.7c2.13-.58,3.68-1.74,3.68-4.07h0c0-.97-.39-1.94-1.16-2.71-1.16-.97-2.52-1.55-4.07-1.55h-6.39v13.95h2.13v-5.23h3.49l4.07,5.23h2.52l-4.26-5.62ZM236.2,269.15v-4.84h4.07c1.94,0,3.1.97,3.1,2.33h0c0,1.55-1.36,2.52-3.29,2.52h-3.88ZM242.02,270.7c2.13-.58,3.68-1.74,3.68-4.07h0c0-.97-.39-1.94-1.16-2.71-1.16-.97-2.52-1.55-4.07-1.55h-6.39v13.95h2.13v-5.23h3.49l4.07,5.23h2.52l-4.26-5.62ZM236.2,269.15v-4.84h4.07c1.94,0,3.1.97,3.1,2.33h0c0,1.55-1.36,2.52-3.29,2.52h-3.88ZM242.02,270.7c2.13-.58,3.68-1.74,3.68-4.07h0c0-.97-.39-1.94-1.16-2.71-1.16-.97-2.52-1.55-4.07-1.55h-6.39v13.95h2.13v-5.23h3.49l4.07,5.23h2.52l-4.26-5.62ZM236.2,269.15v-4.84h4.07c1.94,0,3.1.97,3.1,2.33h0c0,1.55-1.36,2.52-3.29,2.52h-3.88ZM242.02,270.7c2.13-.58,3.68-1.74,3.68-4.07h0c0-.97-.39-1.94-1.16-2.71-1.16-.97-2.52-1.55-4.07-1.55h-6.39v13.95h2.13v-5.23h3.49l4.07,5.23h2.52l-4.26-5.62ZM236.2,269.15v-4.84h4.07c1.94,0,3.1.97,3.1,2.33h0c0,1.55-1.36,2.52-3.29,2.52h-3.88ZM242.02,270.7c2.13-.58,3.68-1.74,3.68-4.07h0c0-.97-.39-1.94-1.16-2.71-1.16-.97-2.52-1.55-4.07-1.55h-6.39v13.95h2.13v-5.23h3.49l4.07,5.23h2.52l-4.26-5.62ZM236.2,269.15v-4.84h4.07c1.94,0,3.1.97,3.1,2.33h0c0,1.55-1.36,2.52-3.29,2.52h-3.88ZM242.02,270.7c2.13-.58,3.68-1.74,3.68-4.07h0c0-.97-.39-1.94-1.16-2.71-1.16-.97-2.52-1.55-4.07-1.55h-6.39v13.95h2.13v-5.23h3.49l4.07,5.23h2.52l-4.26-5.62ZM236.2,269.15v-4.84h4.07c1.94,0,3.1.97,3.1,2.33h0c0,1.55-1.36,2.52-3.29,2.52h-3.88ZM242.02,270.7c2.13-.58,3.68-1.74,3.68-4.07h0c0-.97-.39-1.94-1.16-2.71-1.16-.97-2.52-1.55-4.07-1.55h-6.39v13.95h2.13v-5.23h3.49l4.07,5.23h2.52l-4.26-5.62ZM236.2,269.15v-4.84h4.07c1.94,0,3.1.97,3.1,2.33h0c0,1.55-1.36,2.52-3.29,2.52h-3.88ZM242.02,270.7c2.13-.58,3.68-1.74,3.68-4.07h0c0-.97-.39-1.94-1.16-2.71-1.16-.97-2.52-1.55-4.07-1.55h-6.39v13.95h2.13v-5.23h3.49l4.07,5.23h2.52l-4.26-5.62ZM236.2,269.15v-4.84h4.07c1.94,0,3.1.97,3.1,2.33h0c0,1.55-1.36,2.52-3.29,2.52h-3.88ZM239.5,256.16c-7.36,0-13.56,6.2-13.56,13.56v.19c0,7.36,6.2,13.56,13.56,13.56s13.56-6.2,13.56-13.56v-.19c0-7.56-6.2-13.56-13.56-13.56ZM251.71,269.73c0,6.78-5.62,12.4-12.4,12.4s-12.21-5.62-12.4-12.21v-.19c0-6.78,5.62-12.4,12.4-12.4s12.4,5.43,12.4,12.4h0ZM245.7,266.63h0c0-1.16-.39-2.13-1.16-2.71-1.16-.97-2.52-1.55-4.07-1.55h-6.39v13.95h2.13v-5.23h3.49l4.07,5.23h2.52l-4.26-5.62c2.13-.58,3.68-1.94,3.68-4.07ZM236.2,269.15v-4.84h4.07c1.94,0,3.1.97,3.1,2.33h0c0,1.55-1.36,2.52-3.29,2.52h-3.88ZM242.02,270.7c2.13-.58,3.68-1.74,3.68-4.07h0c0-.97-.39-1.94-1.16-2.71-1.16-.97-2.52-1.55-4.07-1.55h-6.39v13.95h2.13v-5.23h3.49l4.07,5.23h2.52l-4.26-5.62ZM236.2,269.15v-4.84h4.07c1.94,0,3.1.97,3.1,2.33h0c0,1.55-1.36,2.52-3.29,2.52h-3.88ZM242.02,270.7c2.13-.58,3.68-1.74,3.68-4.07h0c0-.97-.39-1.94-1.16-2.71-1.16-.97-2.52-1.55-4.07-1.55h-6.39v13.95h2.13v-5.23h3.49l4.07,5.23h2.52l-4.26-5.62ZM236.2,269.15v-4.84h4.07c1.94,0,3.1.97,3.1,2.33h0c0,1.55-1.36,2.52-3.29,2.52h-3.88ZM242.02,270.7c2.13-.58,3.68-1.74,3.68-4.07h0c0-.97-.39-1.94-1.16-2.71-1.16-.97-2.52-1.55-4.07-1.55h-6.39v13.95h2.13v-5.23h3.49l4.07,5.23h2.52l-4.26-5.62ZM236.2,269.15v-4.84h4.07c1.94,0,3.1.97,3.1,2.33h0c0,1.55-1.36,2.52-3.29,2.52h-3.88ZM242.02,270.7c2.13-.58,3.68-1.74,3.68-4.07h0c0-.97-.39-1.94-1.16-2.71-1.16-.97-2.52-1.55-4.07-1.55h-6.39v13.95h2.13v-5.23h3.49l4.07,5.23h2.52l-4.26-5.62ZM236.2,269.15v-4.84h4.07c1.94,0,3.1.97,3.1,2.33h0c0,1.55-1.36,2.52-3.29,2.52h-3.88ZM242.02,270.7c2.13-.58,3.68-1.74,3.68-4.07h0c0-.97-.39-1.94-1.16-2.71-1.16-.97-2.52-1.55-4.07-1.55h-6.39v13.95h2.13v-5.23h3.49l4.07,5.23h2.52l-4.26-5.62ZM236.2,269.15v-4.84h4.07c1.94,0,3.1.97,3.1,2.33h0c0,1.55-1.36,2.52-3.29,2.52h-3.88ZM242.02,270.7c2.13-.58,3.68-1.74,3.68-4.07h0c0-.97-.39-1.94-1.16-2.71-1.16-.97-2.52-1.55-4.07-1.55h-6.39v13.95h2.13v-5.23h3.49l4.07,5.23h2.52l-4.26-5.62ZM236.2,269.15v-4.84h4.07c1.94,0,3.1.97,3.1,2.33h0c0,1.55-1.36,2.52-3.29,2.52h-3.88ZM242.02,270.7c2.13-.58,3.68-1.74,3.68-4.07h0c0-.97-.39-1.94-1.16-2.71-1.16-.97-2.52-1.55-4.07-1.55h-6.39v13.95h2.13v-5.23h3.49l4.07,5.23h2.52l-4.26-5.62ZM236.2,269.15v-4.84h4.07c1.94,0,3.1.97,3.1,2.33h0c0,1.55-1.36,2.52-3.29,2.52h-3.88ZM242.02,270.7c2.13-.58,3.68-1.74,3.68-4.07h0c0-.97-.39-1.94-1.16-2.71-1.16-.97-2.52-1.55-4.07-1.55h-6.39v13.95h2.13v-5.23h3.49l4.07,5.23h2.52l-4.26-5.62ZM236.2,269.15v-4.84h4.07c1.94,0,3.1.97,3.1,2.33h0c0,1.55-1.36,2.52-3.29,2.52h-3.88ZM242.02,270.7c2.13-.58,3.68-1.74,3.68-4.07h0c0-.97-.39-1.94-1.16-2.71-1.16-.97-2.52-1.55-4.07-1.55h-6.39v13.95h2.13v-5.23h3.49l4.07,5.23h2.52l-4.26-5.62ZM236.2,269.15v-4.84h4.07c1.94,0,3.1.97,3.1,2.33h0c0,1.55-1.36,2.52-3.29,2.52h-3.88ZM242.02,270.7c2.13-.58,3.68-1.74,3.68-4.07h0c0-.97-.39-1.94-1.16-2.71-1.16-.97-2.52-1.55-4.07-1.55h-6.39v13.95h2.13v-5.23h3.49l4.07,5.23h2.52l-4.26-5.62ZM236.2,269.15v-4.84h4.07c1.94,0,3.1.97,3.1,2.33h0c0,1.55-1.36,2.52-3.29,2.52h-3.88ZM242.02,270.7c2.13-.58,3.68-1.74,3.68-4.07h0c0-.97-.39-1.94-1.16-2.71-1.16-.97-2.52-1.55-4.07-1.55h-6.39v13.95h2.13v-5.23h3.49l4.07,5.23h2.52l-4.26-5.62ZM236.2,269.15v-4.84h4.07c1.94,0,3.1.97,3.1,2.33h0c0,1.55-1.36,2.52-3.29,2.52h-3.88ZM242.02,270.7c2.13-.58,3.68-1.74,3.68-4.07h0c0-.97-.39-1.94-1.16-2.71-1.16-.97-2.52-1.55-4.07-1.55h-6.39v13.95h2.13v-5.23h3.49l4.07,5.23h2.52l-4.26-5.62ZM236.2,269.15v-4.84h4.07c1.94,0,3.1.97,3.1,2.33h0c0,1.55-1.36,2.52-3.29,2.52h-3.88ZM242.02,270.7c2.13-.58,3.68-1.74,3.68-4.07h0c0-.97-.39-1.94-1.16-2.71-1.16-.97-2.52-1.55-4.07-1.55h-6.39v13.95h2.13v-5.23h3.49l4.07,5.23h2.52l-4.26-5.62ZM236.2,269.15v-4.84h4.07c1.94,0,3.1.97,3.1,2.33h0c0,1.55-1.36,2.52-3.29,2.52h-3.88ZM242.02,270.7c2.13-.58,3.68-1.74,3.68-4.07h0c0-.97-.39-1.94-1.16-2.71-1.16-.97-2.52-1.55-4.07-1.55h-6.39v13.95h2.13v-5.23h3.49l4.07,5.23h2.52l-4.26-5.62ZM236.2,269.15v-4.84h4.07c1.94,0,3.1.97,3.1,2.33h0c0,1.55-1.36,2.52-3.29,2.52h-3.88ZM242.02,270.7c2.13-.58,3.68-1.74,3.68-4.07h0c0-.97-.39-1.94-1.16-2.71-1.16-.97-2.52-1.55-4.07-1.55h-6.39v13.95h2.13v-5.23h3.49l4.07,5.23h2.52l-4.26-5.62ZM236.2,269.15v-4.84h4.07c1.94,0,3.1.97,3.1,2.33h0c0,1.55-1.36,2.52-3.29,2.52h-3.88ZM242.02,270.7c2.13-.58,3.68-1.74,3.68-4.07h0c0-.97-.39-1.94-1.16-2.71-1.16-.97-2.52-1.55-4.07-1.55h-6.39v13.95h2.13v-5.23h3.49l4.07,5.23h2.52l-4.26-5.62ZM236.2,269.15v-4.84h4.07c1.94,0,3.1.97,3.1,2.33h0c0,1.55-1.36,2.52-3.29,2.52h-3.88ZM242.02,270.7c2.13-.58,3.68-1.74,3.68-4.07h0c0-.97-.39-1.94-1.16-2.71-1.16-.97-2.52-1.55-4.07-1.55h-6.39v13.95h2.13v-5.23h3.49l4.07,5.23h2.52l-4.26-5.62ZM236.2,269.15v-4.84h4.07c1.94,0,3.1.97,3.1,2.33h0c0,1.55-1.36,2.52-3.29,2.52h-3.88ZM242.02,270.7c2.13-.58,3.68-1.74,3.68-4.07h0c0-.97-.39-1.94-1.16-2.71-1.16-.97-2.52-1.55-4.07-1.55h-6.39v13.95h2.13v-5.23h3.49l4.07,5.23h2.52l-4.26-5.62ZM236.2,269.15v-4.84h4.07c1.94,0,3.1.97,3.1,2.33h0c0,1.55-1.36,2.52-3.29,2.52h-3.88ZM242.02,270.7c2.13-.58,3.68-1.74,3.68-4.07h0c0-.97-.39-1.94-1.16-2.71-1.16-.97-2.52-1.55-4.07-1.55h-6.39v13.95h2.13v-5.23h3.49l4.07,5.23h2.52l-4.26-5.62ZM236.2,269.15v-4.84h4.07c1.94,0,3.1.97,3.1,2.33h0c0,1.55-1.36,2.52-3.29,2.52h-3.88ZM242.02,270.7c2.13-.58,3.68-1.74,3.68-4.07h0c0-.97-.39-1.94-1.16-2.71-1.16-.97-2.52-1.55-4.07-1.55h-6.39v13.95h2.13v-5.23h3.49l4.07,5.23h2.52l-4.26-5.62ZM236.2,269.15v-4.84h4.07c1.94,0,3.1.97,3.1,2.33h0c0,1.55-1.36,2.52-3.29,2.52h-3.88ZM242.02,270.7c2.13-.58,3.68-1.74,3.68-4.07h0c0-.97-.39-1.94-1.16-2.71-1.16-.97-2.52-1.55-4.07-1.55h-6.39v13.95h2.13v-5.23h3.49l4.07,5.23h2.52l-4.26-5.62ZM236.2,269.15v-4.84h4.07c1.94,0,3.1.97,3.1,2.33h0c0,1.55-1.36,2.52-3.29,2.52h-3.88ZM242.02,270.7c2.13-.58,3.68-1.74,3.68-4.07h0c0-.97-.39-1.94-1.16-2.71-1.16-.97-2.52-1.55-4.07-1.55h-6.39v13.95h2.13v-5.23h3.49l4.07,5.23h2.52l-4.26-5.62ZM236.2,269.15v-4.84h4.07c1.94,0,3.1.97,3.1,2.33h0c0,1.55-1.36,2.52-3.29,2.52h-3.88ZM242.02,270.7c2.13-.58,3.68-1.74,3.68-4.07h0c0-.97-.39-1.94-1.16-2.71-1.16-.97-2.52-1.55-4.07-1.55h-6.39v13.95h2.13v-5.23h3.49l4.07,5.23h2.52l-4.26-5.62ZM236.2,269.15v-4.84h4.07c1.94,0,3.1.97,3.1,2.33h0c0,1.55-1.36,2.52-3.29,2.52h-3.88ZM242.02,270.7c2.13-.58,3.68-1.74,3.68-4.07h0c0-.97-.39-1.94-1.16-2.71-1.16-.97-2.52-1.55-4.07-1.55h-6.39v13.95h2.13v-5.23h3.49l4.07,5.23h2.52l-4.26-5.62ZM236.2,269.15v-4.84h4.07c1.94,0,3.1.97,3.1,2.33h0c0,1.55-1.36,2.52-3.29,2.52h-3.88ZM242.02,270.7c2.13-.58,3.68-1.74,3.68-4.07h0c0-.97-.39-1.94-1.16-2.71-1.16-.97-2.52-1.55-4.07-1.55h-6.39v13.95h2.13v-5.23h3.49l4.07,5.23h2.52l-4.26-5.62ZM236.2,269.15v-4.84h4.07c1.94,0,3.1.97,3.1,2.33h0c0,1.55-1.36,2.52-3.29,2.52h-3.88ZM242.02,270.7c2.13-.58,3.68-1.74,3.68-4.07h0c0-.97-.39-1.94-1.16-2.71-1.16-.97-2.52-1.55-4.07-1.55h-6.39v13.95h2.13v-5.23h3.49l4.07,5.23h2.52l-4.26-5.62ZM236.2,269.15v-4.84h4.07c1.94,0,3.1.97,3.1,2.33h0c0,1.55-1.36,2.52-3.29,2.52h-3.88ZM218.18,265.27c-1.16-7.75-4.26-9.49-10.46-12.21,4.65-2.71,7.56-6.78,7.56-12.4,0-11.04-9.11-15.5-18.99-15.5h-27.52v58.91h27.52c11.63-.19,24.03-5.43,21.9-18.8ZM181.37,236.2h14.34c8.91,0,9.3,12.59.58,12.59h-14.92v-12.59ZM197.26,272.63h-16.08v-13.37h16.08c11.82,0,11.04,13.37,0,13.37ZM163.35,265.27c-1.16-7.75-4.26-9.49-10.46-12.4,4.65-2.71,7.56-6.78,7.56-12.4,0-11.04-9.11-15.5-18.99-15.5h-27.71v58.91h27.52c11.63,0,24.03-5.23,22.09-18.6ZM126.34,236.2h14.34c8.91,0,9.3,12.59.58,12.59h-14.92v-12.59ZM142.42,272.63h-16.08v-13.37h16.08c11.63,0,11.04,13.37,0,13.37ZM108.51,265.27c-1.16-7.75-4.26-9.49-10.46-12.4h0c4.65-2.71,7.56-6.78,7.56-12.4,0-11.04-9.11-15.5-18.99-15.5h-27.71v58.91h27.52c11.63,0,24.03-5.23,22.09-18.6ZM71.31,236.2h14.34c8.91,0,9.3,12.59.58,12.59h-14.92v-12.59ZM87.39,272.63h-16.08v-13.37h16.08c11.82,0,11.04,13.37,0,13.37Z"/>
</svg>