<?xml version="1.0" encoding="UTF-8"?>
<svg id="Layer_1" data-name="Layer 1" xmlns="http://www.w3.org/2000/svg" viewBox="0 0 179.04 117.6">
  <path d="M144.24,0c-.14.72.35.43.79.51,44.52,8.08,44.23,81.91-.02,89-8.67,1.39-20.78.21-27.97-5.24-.94-.72-1.64-2.04-2.8-2.11v32.69c0,.08-.32.36-.24.6h-20.28l-.36-.36V2.51l.36-.36h20.16l.36.36v6.59c1.24.01,2.21-1.35,3.28-2.11,5.63-3.97,10.52-5.41,17.25-6.51.45-.07.96.27.82-.48h8.64ZM132.43,19.23c-24.04,2.23-25.17,44.97-3.5,51.01,34.16,9.53,38.06-54.22,3.5-51.01Z" fill="white"/>
  <path d="M86.64,2.16l-.16,1.15c-11.29,30.38-20.29,61.67-31.64,92.01-3.07,8.2-7,16.26-15.83,19.41-6.97,2.49-17.23,2.26-24.25,0-.66-.21-3-.81-3-1.56v-17.48l.59-.36c5.08,2.01,15.96,4.42,20.18.01,3.43-3.58,1.4-8.06-.01-11.98C22.72,56.3,10.85,29.9.78,2.93l-.06-.78h22.2l22.56,64.91L65.4,2.16h21.24Z" fill="white"/>
</svg>